<svg width="62" height="63" viewBox="0 0 62 63" fill="none" xmlns="http://www.w3.org/2000/svg">
<circle cx="31" cy="31.5" r="31" fill="#3CD856"/>
<path fill-rule="evenodd" clip-rule="evenodd" d="M18.0834 21.1667C18.0834 20.0248 18.537 18.9297 19.3444 18.1222C20.1519 17.3148 21.247 16.8611 22.3889 16.8611C22.3889 18.574 23.0694 20.2167 24.2805 21.4279C25.4917 22.639 27.1344 23.3195 28.8473 23.3195H33.1528C34.8657 23.3195 36.5084 22.639 37.7196 21.4279C38.9307 20.2167 39.6112 18.574 39.6112 16.8611C40.7531 16.8611 41.8482 17.3148 42.6556 18.1222C43.4631 18.9297 43.9167 20.0248 43.9167 21.1667V44.8473C43.9167 45.9892 43.4631 47.0843 42.6556 47.8917C41.8482 48.6992 40.7531 49.1528 39.6112 49.1528H22.3889C21.247 49.1528 20.1519 48.6992 19.3444 47.8917C18.537 47.0843 18.0834 45.9892 18.0834 44.8473V21.1667ZM24.5417 29.7778C23.9708 29.7778 23.4232 30.0046 23.0195 30.4083C22.6157 30.8121 22.3889 31.3596 22.3889 31.9306C22.3889 32.5015 22.6157 33.0491 23.0195 33.4528C23.4232 33.8566 23.9708 34.0834 24.5417 34.0834H24.5632C25.1342 34.0834 25.6818 33.8566 26.0855 33.4528C26.4892 33.0491 26.716 32.5015 26.716 31.9306C26.716 31.3596 26.4892 30.8121 26.0855 30.4083C25.6818 30.0046 25.1342 29.7778 24.5632 29.7778H24.5417ZM31 29.7778C30.4291 29.7778 29.8815 30.0046 29.4778 30.4083C29.0741 30.8121 28.8473 31.3596 28.8473 31.9306C28.8473 32.5015 29.0741 33.0491 29.4778 33.4528C29.8815 33.8566 30.4291 34.0834 31 34.0834H37.4584C38.0293 34.0834 38.5769 33.8566 38.9806 33.4528C39.3843 33.0491 39.6112 32.5015 39.6112 31.9306C39.6112 31.3596 39.3843 30.8121 38.9806 30.4083C38.5769 30.0046 38.0293 29.7778 37.4584 29.7778H31ZM24.5417 38.3889C23.9708 38.3889 23.4232 38.6157 23.0195 39.0195C22.6157 39.4232 22.3889 39.9707 22.3889 40.5417C22.3889 41.1127 22.6157 41.6602 23.0195 42.0639C23.4232 42.4677 23.9708 42.6945 24.5417 42.6945H24.5632C25.1342 42.6945 25.6818 42.4677 26.0855 42.0639C26.4892 41.6602 26.716 41.1127 26.716 40.5417C26.716 39.9707 26.4892 39.4232 26.0855 39.0195C25.6818 38.6157 25.1342 38.3889 24.5632 38.3889H24.5417ZM31 38.3889C30.4291 38.3889 29.8815 38.6157 29.4778 39.0195C29.0741 39.4232 28.8473 39.9707 28.8473 40.5417C28.8473 41.1127 29.0741 41.6602 29.4778 42.0639C29.8815 42.4677 30.4291 42.6945 31 42.6945H37.4584C38.0293 42.6945 38.5769 42.4677 38.9806 42.0639C39.3843 41.6602 39.6112 41.1127 39.6112 40.5417C39.6112 39.9707 39.3843 39.4232 38.9806 39.0195C38.5769 38.6157 38.0293 38.3889 37.4584 38.3889H31Z" fill="white"/>
<path d="M28.847 14.7083C28.276 14.7083 27.7285 14.9351 27.3247 15.3389C26.921 15.7426 26.6942 16.2902 26.6942 16.8611C26.6942 17.4321 26.921 17.9796 27.3247 18.3834C27.7285 18.7871 28.276 19.0139 28.847 19.0139H33.1525C33.7235 19.0139 34.2711 18.7871 34.6748 18.3834C35.0785 17.9796 35.3053 17.4321 35.3053 16.8611C35.3053 16.2902 35.0785 15.7426 34.6748 15.3389C34.2711 14.9351 33.7235 14.7083 33.1525 14.7083H28.847Z" fill="white"/>
</svg>
