<svg width="62" height="63" viewBox="0 0 62 63" fill="none" xmlns="http://www.w3.org/2000/svg">
<circle cx="31" cy="31.5" r="31" fill="#FF947A"/>
<g clip-path="url(#clip0_262_1363)">
<path opacity="0.997" fill-rule="evenodd" clip-rule="evenodd" d="M21.2822 15.9697C25.4196 15.9697 29.557 15.9697 33.6943 15.9697C33.6842 18.089 33.6943 20.2081 33.7246 22.3271C33.8191 23.7132 34.5356 24.5912 35.874 24.9609C38.1733 25.0483 40.4741 25.0786 42.7764 25.0518C42.7865 31.6514 42.7764 38.251 42.7461 44.8506C42.4424 45.9514 41.7461 46.6578 40.6572 46.9697C34.1989 46.9697 27.7406 46.9697 21.2822 46.9697C20.1928 46.6573 19.4965 45.9509 19.1934 44.8506C19.153 35.93 19.153 27.0094 19.1934 18.0889C19.497 16.988 20.1933 16.2816 21.2822 15.9697ZM25.5205 28.7451C29.1534 28.735 32.7862 28.7451 36.4189 28.7754C36.9603 28.8222 37.2429 29.1149 37.2666 29.6533C37.2429 30.1918 36.9603 30.4844 36.4189 30.5312C32.7861 30.5716 29.1533 30.5716 25.5205 30.5312C24.7161 30.3452 24.484 29.8709 24.8242 29.1084C25.0245 28.9125 25.2566 28.7914 25.5205 28.7451ZM25.5205 32.3779C29.1534 32.3678 32.7862 32.3779 36.4189 32.4082C36.9603 32.455 37.2429 32.7477 37.2666 33.2861C37.2429 33.8246 36.9603 34.1173 36.4189 34.1641C32.7861 34.2044 29.1533 34.2044 25.5205 34.1641C24.7161 33.978 24.484 33.5037 24.8242 32.7412C25.0245 32.5453 25.2566 32.4242 25.5205 32.3779ZM25.5205 36.0107C29.1534 36.0006 32.7862 36.0107 36.4189 36.041C36.9603 36.0878 37.2429 36.3805 37.2666 36.9189C37.2429 37.4574 36.9603 37.7501 36.4189 37.7969C32.7861 37.8373 29.1533 37.8373 25.5205 37.7969C24.7161 37.6108 24.484 37.1366 24.8242 36.374C25.0245 36.1782 25.2566 36.0571 25.5205 36.0107ZM25.5205 39.6436C27.9424 39.6334 30.3643 39.6436 32.7861 39.6738C33.182 39.6948 33.4545 39.8865 33.6035 40.249C33.7119 40.911 33.4394 41.3045 32.7861 41.4297C30.3643 41.4701 27.9424 41.4701 25.5205 41.4297C24.7161 41.2436 24.484 40.7694 24.8242 40.0068C25.0245 39.811 25.2566 39.6899 25.5205 39.6436Z" fill="white"/>
<path opacity="0.975" fill-rule="evenodd" clip-rule="evenodd" d="M35.5108 16.4541C37.7791 18.6922 40.0396 20.9426 42.292 23.2051C40.2132 23.2455 38.1344 23.2455 36.0557 23.2051C35.8034 23.1143 35.6318 22.9427 35.541 22.6904C35.5108 20.6118 35.5006 18.533 35.5108 16.4541Z" fill="white"/>
</g>
<defs>
<clipPath id="clip0_262_1363">
<rect width="31" height="31" fill="white" transform="translate(15.5 16)"/>
</clipPath>
</defs>
</svg>
