<svg width="595" height="239" viewBox="0 0 595 239" fill="none" xmlns="http://www.w3.org/2000/svg">
<g clip-path="url(#clip0_2005_7)">
<path d="M594.97 238.931H0.25V0.470703C5.3 0.470703 9.13 4.19074 11.84 8.32074C15.18 13.4207 16.84 19.4308 16.84 25.5208V188.781C16.84 195.731 19.21 202.501 23.64 207.861C26.21 210.981 28.99 213.471 31.59 215.421C36.77 219.301 43.09 221.351 49.56 221.351H594.97V238.931Z" fill="#30CFCE"/>
<path d="M71.8902 151.23H49.1802V173.94H71.8902V151.23Z" fill="#30CFCE"/>
<path d="M63.2801 167.7C62.7601 167.68 62.2601 167.58 61.7701 167.4C60.8901 167.06 60.0901 166.58 59.3501 166C58.8501 165.61 58.4001 165.16 57.9501 164.71C57.3101 164.06 56.7601 163.35 56.3001 162.57C55.9201 161.93 55.6301 161.26 55.4901 160.53C55.4301 160.24 55.4001 159.94 55.4401 159.65C55.4701 159.44 55.5401 159.26 55.6901 159.11C56.1801 158.62 56.6701 158.13 57.1601 157.64C57.3001 157.5 57.4801 157.44 57.6701 157.51C57.8001 157.56 57.8901 157.65 57.9501 157.77C58.3301 158.49 58.7101 159.22 59.1001 159.94C59.2401 160.2 59.1601 160.51 58.9701 160.7C58.8001 160.87 58.6401 161.03 58.4701 161.2C58.4001 161.27 58.3801 161.34 58.4001 161.43C58.4701 161.69 58.6001 161.93 58.7401 162.16C58.9801 162.54 59.2601 162.89 59.5901 163.21C59.8601 163.47 60.1301 163.74 60.4101 163.98C60.7401 164.26 61.0901 164.5 61.5001 164.66C61.5801 164.69 61.6701 164.71 61.7601 164.73C61.8201 164.73 61.8801 164.71 61.9201 164.66C62.1101 164.46 62.3101 164.27 62.5001 164.07C62.7201 163.85 63.0701 163.81 63.3301 163.97C64.0001 164.37 64.6701 164.76 65.3401 165.16C65.4701 165.24 65.5801 165.33 65.6301 165.47C65.6901 165.65 65.6501 165.82 65.5201 165.96C65.2101 166.27 64.9001 166.58 64.5901 166.88C64.4201 167.05 64.2501 167.21 64.0801 167.39C63.8701 167.6 63.6201 167.7 63.3301 167.7C63.3101 167.7 63.3001 167.7 63.2801 167.7Z" fill="white"/>
<path d="M198.12 151.23H175.41V173.94H198.12V151.23Z" fill="#1F140F"/>
<path d="M184.56 163.031C184.66 166.041 185.77 168.111 186.77 168.111C187.77 168.111 188.88 166.051 188.98 163.031H184.57H184.56Z" fill="white"/>
<path d="M186.77 157.07C185.77 157.07 184.66 159.13 184.56 162.15H188.97C188.87 159.14 187.76 157.07 186.76 157.07H186.77Z" fill="white"/>
<path d="M189.86 162.151H192.71C192.52 159.521 190.62 157.371 188.12 156.791C189.11 157.731 189.79 159.721 189.86 162.151Z" fill="white"/>
<path d="M189.86 163.031C189.79 165.461 189.11 167.451 188.12 168.391C190.62 167.811 192.52 165.661 192.71 163.031H189.86Z" fill="white"/>
<path d="M183.68 163.031H180.83C181.02 165.661 182.92 167.811 185.42 168.391C184.43 167.451 183.75 165.461 183.68 163.031Z" fill="white"/>
<path d="M183.68 162.151C183.75 159.721 184.43 157.731 185.42 156.791C182.92 157.371 181.02 159.521 180.83 162.151H183.68Z" fill="white"/>
<path d="M333.01 151.23H310.3V173.94H333.01V151.23Z" fill="#30CFCE"/>
<path d="M321.65 156.361C318.99 156.361 316.84 158.511 316.84 161.171C316.84 163.431 320.34 167.531 321.37 168.691C321.52 168.861 321.78 168.861 321.93 168.691C322.96 167.531 326.46 163.441 326.46 161.171C326.46 158.511 324.31 156.361 321.65 156.361ZM321.65 163.311C320.34 163.311 319.27 162.241 319.27 160.931C319.27 159.621 320.34 158.551 321.65 158.551C322.96 158.551 324.03 159.621 324.03 160.931C324.03 162.241 322.96 163.311 321.65 163.311Z" fill="white"/>
<path d="M81.9798 163.23H84.0498V163.88H81.9798V165.96H81.3298V163.88H79.2598V163.23H81.3298V161.15H81.9798V163.23Z" fill="#5C5B5F"/>
<path d="M89.7398 159.221C91.2098 159.221 91.7798 160.091 91.7798 160.941C91.7798 161.541 91.3998 162.091 90.8498 162.341C91.6598 162.601 92.0498 163.191 92.0498 164.021C92.0498 165.321 91.0598 166.071 89.8198 166.071C88.5798 166.071 87.5298 165.401 87.5298 164.021C87.5298 163.221 87.9598 162.601 88.7098 162.341C88.1498 162.111 87.7698 161.551 87.7698 160.941C87.7698 159.831 88.7098 159.221 89.7498 159.221H89.7398ZM89.8198 165.361C90.6298 165.361 91.1998 164.801 91.1998 164.051C91.1998 163.301 90.5698 162.771 89.8098 162.771C89.0098 162.771 88.3798 163.281 88.3798 164.061C88.3798 164.841 88.9798 165.361 89.8198 165.361ZM89.8198 162.051C90.4598 162.051 90.9298 161.651 90.9298 160.971C90.9298 160.291 90.4598 159.931 89.7998 159.931C89.1398 159.931 88.6198 160.291 88.6198 160.971C88.6198 161.711 89.1498 162.051 89.8198 162.051Z" fill="#5C5B5F"/>
<path d="M96.89 160.04H94.17L93.81 161.98L93.83 162C94.12 161.67 94.63 161.52 95.08 161.52C96.28 161.52 97.26 162.29 97.26 163.83C97.26 164.97 96.47 166.07 94.9 166.07C93.73 166.07 92.78 165.36 92.75 164.14H93.56C93.61 164.83 94.17 165.36 94.98 165.36C95.79 165.36 96.41 164.84 96.41 163.76C96.41 162.87 95.79 162.23 94.89 162.23C94.38 162.23 93.95 162.49 93.64 162.87L92.95 162.83L93.58 159.33H96.91V160.04H96.89Z" fill="#5C5B5F"/>
<path d="M98.1198 161.601C98.0498 160.231 98.8597 159.211 100.29 159.211C101.47 159.211 102.4 159.891 102.4 161.151C102.4 162.341 101.6 162.941 100.76 163.461C99.9098 163.971 99.0298 164.401 98.8698 165.241H102.33V165.951H97.9297C98.0597 164.351 98.8697 163.781 99.8197 163.191C100.96 162.491 101.54 162.071 101.54 161.141C101.54 160.411 100.95 159.921 100.24 159.921C99.2997 159.921 98.8997 160.791 98.9297 161.591H98.1198V161.601Z" fill="#5C5B5F"/>
<path d="M107.7 162.111C107.82 162.111 107.94 162.111 108.05 162.111C108.73 162.111 109.33 161.741 109.33 161.011C109.33 160.281 108.82 159.931 108.13 159.931C107.25 159.931 106.87 160.611 106.86 161.391H106.05C106.1 160.111 106.78 159.211 108.13 159.211C109.3 159.211 110.18 159.771 110.18 161.021C110.18 161.611 109.76 162.121 109.25 162.361V162.381C110.07 162.561 110.47 163.211 110.47 164.011C110.47 165.361 109.41 166.061 108.15 166.061C106.78 166.061 105.88 165.251 105.91 163.861H106.72C106.75 164.741 107.23 165.341 108.16 165.341C108.95 165.341 109.62 164.851 109.62 164.041C109.62 163.231 108.98 162.751 108.19 162.751C108.03 162.751 107.86 162.751 107.7 162.781V162.101V162.111Z" fill="#5C5B5F"/>
<path d="M112.19 164.331C112.25 164.991 112.78 165.361 113.43 165.361C114.42 165.361 114.9 164.491 114.95 162.761L114.93 162.741C114.63 163.311 114.03 163.671 113.37 163.671C112 163.671 111.24 162.751 111.24 161.421C111.24 160.091 112.15 159.221 113.45 159.221C114.75 159.221 115.76 159.891 115.76 162.441C115.76 164.771 115.06 166.071 113.42 166.071C112.29 166.071 111.48 165.491 111.38 164.331H112.19ZM113.42 159.931C112.46 159.931 112.1 160.701 112.1 161.531C112.1 162.271 112.65 162.961 113.43 162.961C114.28 162.961 114.81 162.281 114.81 161.481C114.81 160.681 114.33 159.941 113.42 159.941V159.931Z" fill="#5C5B5F"/>
<path d="M117.47 164.331C117.53 164.991 118.06 165.361 118.71 165.361C119.7 165.361 120.18 164.491 120.23 162.761L120.21 162.741C119.91 163.311 119.31 163.671 118.65 163.671C117.28 163.671 116.52 162.751 116.52 161.421C116.52 160.091 117.43 159.221 118.73 159.221C120.03 159.221 121.04 159.891 121.04 162.441C121.04 164.771 120.34 166.071 118.7 166.071C117.57 166.071 116.76 165.491 116.66 164.331H117.47ZM118.7 159.931C117.74 159.931 117.38 160.701 117.38 161.531C117.38 162.271 117.93 162.961 118.71 162.961C119.56 162.961 120.09 162.281 120.09 161.481C120.09 160.681 119.61 159.941 118.7 159.941V159.931Z" fill="#5C5B5F"/>
<path d="M126.32 160.02C124.96 161.37 123.86 163.84 123.73 165.95H122.83C122.98 163.67 124.08 161.59 125.49 160.08H121.95V159.32H126.31V160.01L126.32 160.02Z" fill="#5C5B5F"/>
<path d="M131.47 162.111C131.59 162.111 131.71 162.111 131.82 162.111C132.5 162.111 133.1 161.741 133.1 161.011C133.1 160.281 132.59 159.931 131.9 159.931C131.02 159.931 130.64 160.611 130.63 161.391H129.82C129.87 160.111 130.55 159.211 131.9 159.211C133.07 159.211 133.95 159.771 133.95 161.021C133.95 161.611 133.53 162.121 133.02 162.361V162.381C133.84 162.561 134.24 163.211 134.24 164.011C134.24 165.361 133.18 166.061 131.92 166.061C130.55 166.061 129.65 165.251 129.68 163.861H130.49C130.52 164.741 131 165.341 131.93 165.341C132.72 165.341 133.39 164.851 133.39 164.041C133.39 163.231 132.75 162.751 131.96 162.751C131.8 162.751 131.63 162.751 131.47 162.781V162.101V162.111Z" fill="#5C5B5F"/>
<path d="M136.75 162.111C136.87 162.111 136.99 162.111 137.1 162.111C137.78 162.111 138.38 161.741 138.38 161.011C138.38 160.281 137.87 159.931 137.18 159.931C136.3 159.931 135.92 160.611 135.91 161.391H135.1C135.15 160.111 135.83 159.211 137.18 159.211C138.35 159.211 139.23 159.771 139.23 161.021C139.23 161.611 138.81 162.121 138.3 162.361V162.381C139.12 162.561 139.52 163.211 139.52 164.011C139.52 165.361 138.46 166.061 137.2 166.061C135.83 166.061 134.93 165.251 134.96 163.861H135.77C135.8 164.741 136.28 165.341 137.21 165.341C138 165.341 138.67 164.851 138.67 164.041C138.67 163.231 138.03 162.751 137.24 162.751C137.08 162.751 136.91 162.751 136.75 162.781V162.101V162.111Z" fill="#5C5B5F"/>
<path d="M142.56 159.221C144.03 159.221 144.6 160.091 144.6 160.941C144.6 161.541 144.22 162.091 143.67 162.341C144.48 162.601 144.87 163.191 144.87 164.021C144.87 165.321 143.88 166.071 142.64 166.071C141.4 166.071 140.35 165.401 140.35 164.021C140.35 163.221 140.78 162.601 141.53 162.341C140.97 162.111 140.59 161.551 140.59 160.941C140.59 159.831 141.53 159.221 142.57 159.221H142.56ZM142.64 165.361C143.45 165.361 144.02 164.801 144.02 164.051C144.02 163.301 143.39 162.771 142.63 162.771C141.83 162.771 141.2 163.281 141.2 164.061C141.2 164.841 141.8 165.361 142.64 165.361ZM142.64 162.051C143.28 162.051 143.75 161.651 143.75 160.971C143.75 160.291 143.28 159.931 142.62 159.931C141.96 159.931 141.44 160.291 141.44 160.971C141.44 161.711 141.97 162.051 142.64 162.051Z" fill="#5C5B5F"/>
<path d="M147.89 159.221C150 159.221 150.13 161.161 150.13 162.651C150.13 164.141 150 166.071 147.89 166.071C145.78 166.071 145.65 164.131 145.65 162.651C145.65 161.171 145.78 159.221 147.89 159.221ZM147.89 165.361C149.27 165.361 149.28 163.651 149.28 162.641C149.28 161.631 149.28 159.931 147.89 159.931C146.5 159.931 146.5 161.641 146.5 162.641C146.5 163.641 146.5 165.361 147.89 165.361Z" fill="#5C5B5F"/>
<path d="M204.003 167L202.341 161.545H203.222L204.401 165.722H204.457L205.622 161.545H206.517L207.668 165.707H207.724L208.903 161.545H209.784L208.122 167H207.298L206.105 162.81H206.02L204.827 167H204.003ZM212.128 167L210.466 161.545H211.347L212.526 165.722H212.582L213.747 161.545H214.642L215.793 165.707H215.849L217.028 161.545H217.909L216.247 167H215.423L214.23 162.81H214.145L212.952 167H212.128ZM220.253 167L218.591 161.545H219.472L220.651 165.722H220.707L221.872 161.545H222.767L223.918 165.707H223.974L225.153 161.545H226.034L224.372 167H223.548L222.355 162.81H222.27L221.077 167H220.253ZM227.011 167.057C226.835 167.057 226.685 166.994 226.56 166.869C226.434 166.743 226.371 166.593 226.371 166.418C226.371 166.242 226.434 166.092 226.56 165.967C226.685 165.841 226.835 165.778 227.011 165.778C227.186 165.778 227.336 165.841 227.462 165.967C227.587 166.092 227.65 166.242 227.65 166.418C227.65 166.534 227.62 166.64 227.561 166.737C227.504 166.834 227.427 166.912 227.33 166.972C227.236 167.028 227.129 167.057 227.011 167.057ZM229.267 167V159.727H230.105V162.412H230.176C230.238 162.317 230.323 162.196 230.432 162.05C230.543 161.901 230.702 161.768 230.908 161.652C231.116 161.534 231.398 161.474 231.753 161.474C232.212 161.474 232.617 161.589 232.968 161.819C233.318 162.049 233.592 162.374 233.788 162.795C233.984 163.217 234.083 163.714 234.083 164.287C234.083 164.865 233.984 165.365 233.788 165.789C233.592 166.21 233.319 166.537 232.971 166.769C232.623 166.999 232.222 167.114 231.767 167.114C231.417 167.114 231.136 167.056 230.926 166.94C230.715 166.821 230.553 166.687 230.439 166.538C230.326 166.387 230.238 166.261 230.176 166.162H230.077V167H229.267ZM230.091 164.273C230.091 164.685 230.152 165.048 230.272 165.363C230.393 165.675 230.569 165.92 230.801 166.098C231.033 166.273 231.318 166.361 231.654 166.361C232.004 166.361 232.297 166.268 232.531 166.084C232.768 165.897 232.945 165.646 233.064 165.331C233.184 165.014 233.245 164.661 233.245 164.273C233.245 163.889 233.185 163.544 233.067 163.236C232.951 162.926 232.775 162.681 232.538 162.501C232.304 162.318 232.009 162.227 231.654 162.227C231.313 162.227 231.026 162.314 230.794 162.487C230.562 162.657 230.387 162.896 230.269 163.204C230.15 163.509 230.091 163.866 230.091 164.273ZM236.203 159.727V167H235.365V159.727H236.203ZM241.175 164.77V161.545H242.013V167H241.175V166.077H241.118C240.991 166.354 240.792 166.589 240.522 166.783C240.252 166.975 239.911 167.071 239.499 167.071C239.158 167.071 238.855 166.996 238.59 166.847C238.325 166.696 238.117 166.469 237.965 166.165C237.814 165.86 237.738 165.475 237.738 165.011V161.545H238.576V164.955C238.576 165.352 238.687 165.67 238.91 165.906C239.135 166.143 239.421 166.261 239.769 166.261C239.977 166.261 240.189 166.208 240.405 166.102C240.622 165.995 240.805 165.832 240.952 165.612C241.101 165.391 241.175 165.111 241.175 164.77ZM243.548 167V161.545H244.358V162.369H244.415C244.514 162.099 244.694 161.88 244.955 161.712C245.215 161.544 245.509 161.46 245.835 161.46C245.897 161.46 245.974 161.461 246.066 161.464C246.158 161.466 246.228 161.47 246.276 161.474V162.327C246.247 162.32 246.182 162.309 246.08 162.295C245.981 162.278 245.875 162.27 245.764 162.27C245.499 162.27 245.262 162.326 245.054 162.437C244.848 162.546 244.685 162.697 244.564 162.891C244.446 163.083 244.386 163.302 244.386 163.548V167H243.548ZM247.269 167V161.545H248.079V162.369H248.135C248.235 162.099 248.415 161.88 248.675 161.712C248.936 161.544 249.229 161.46 249.556 161.46C249.617 161.46 249.694 161.461 249.787 161.464C249.879 161.466 249.949 161.47 249.996 161.474V162.327C249.968 162.32 249.903 162.309 249.801 162.295C249.702 162.278 249.596 162.27 249.485 162.27C249.22 162.27 248.983 162.326 248.775 162.437C248.569 162.546 248.405 162.697 248.285 162.891C248.166 163.083 248.107 163.302 248.107 163.548V167H247.269ZM253.111 167.114C252.585 167.114 252.132 166.998 251.751 166.766C251.372 166.531 251.079 166.205 250.873 165.786C250.67 165.364 250.568 164.874 250.568 164.315C250.568 163.757 250.67 163.264 250.873 162.838C251.079 162.41 251.366 162.076 251.733 161.837C252.102 161.595 252.533 161.474 253.025 161.474C253.309 161.474 253.59 161.522 253.867 161.616C254.144 161.711 254.396 161.865 254.623 162.078C254.851 162.289 255.032 162.568 255.167 162.916C255.302 163.264 255.369 163.693 255.369 164.202V164.557H251.165V163.832H254.517C254.517 163.525 254.455 163.25 254.332 163.009C254.211 162.767 254.039 162.576 253.814 162.437C253.591 162.297 253.328 162.227 253.025 162.227C252.692 162.227 252.403 162.31 252.159 162.476C251.917 162.639 251.732 162.852 251.601 163.115C251.471 163.378 251.406 163.66 251.406 163.96V164.443C251.406 164.855 251.477 165.204 251.619 165.491C251.764 165.775 251.964 165.991 252.219 166.141C252.475 166.287 252.772 166.361 253.111 166.361C253.331 166.361 253.53 166.33 253.707 166.268C253.887 166.205 254.042 166.11 254.172 165.984C254.303 165.857 254.403 165.698 254.474 165.509L255.284 165.736C255.199 166.01 255.055 166.252 254.854 166.46C254.653 166.666 254.404 166.827 254.108 166.943C253.813 167.057 253.48 167.114 253.111 167.114ZM258.704 167.114C258.249 167.114 257.848 166.999 257.5 166.769C257.152 166.537 256.88 166.21 256.683 165.789C256.487 165.365 256.388 164.865 256.388 164.287C256.388 163.714 256.487 163.217 256.683 162.795C256.88 162.374 257.153 162.049 257.503 161.819C257.854 161.589 258.259 161.474 258.718 161.474C259.073 161.474 259.354 161.534 259.559 161.652C259.768 161.768 259.926 161.901 260.035 162.05C260.147 162.196 260.233 162.317 260.295 162.412H260.366V159.727H261.204V167H260.394V166.162H260.295C260.233 166.261 260.145 166.387 260.032 166.538C259.918 166.687 259.756 166.821 259.545 166.94C259.335 167.056 259.054 167.114 258.704 167.114ZM258.817 166.361C259.153 166.361 259.438 166.273 259.67 166.098C259.902 165.92 260.078 165.675 260.199 165.363C260.319 165.048 260.38 164.685 260.38 164.273C260.38 163.866 260.321 163.509 260.202 163.204C260.084 162.896 259.909 162.657 259.677 162.487C259.445 162.314 259.158 162.227 258.817 162.227C258.462 162.227 258.166 162.318 257.93 162.501C257.695 162.681 257.519 162.926 257.4 163.236C257.284 163.544 257.226 163.889 257.226 164.273C257.226 164.661 257.286 165.014 257.404 165.331C257.525 165.646 257.702 165.897 257.937 166.084C258.173 166.268 258.467 166.361 258.817 166.361ZM265.142 167.114C264.616 167.114 264.163 166.998 263.782 166.766C263.403 166.531 263.111 166.205 262.905 165.786C262.701 165.364 262.599 164.874 262.599 164.315C262.599 163.757 262.701 163.264 262.905 162.838C263.111 162.41 263.397 162.076 263.764 161.837C264.133 161.595 264.564 161.474 265.057 161.474C265.341 161.474 265.621 161.522 265.898 161.616C266.175 161.711 266.427 161.865 266.655 162.078C266.882 162.289 267.063 162.568 267.198 162.916C267.333 163.264 267.4 163.693 267.4 164.202V164.557H263.196V163.832H266.548C266.548 163.525 266.487 163.25 266.363 163.009C266.243 162.767 266.07 162.576 265.845 162.437C265.622 162.297 265.36 162.227 265.057 162.227C264.723 162.227 264.434 162.31 264.19 162.476C263.949 162.639 263.763 162.852 263.633 163.115C263.502 163.378 263.437 163.66 263.437 163.96V164.443C263.437 164.855 263.508 165.204 263.65 165.491C263.795 165.775 263.995 165.991 264.251 166.141C264.506 166.287 264.803 166.361 265.142 166.361C265.362 166.361 265.561 166.33 265.738 166.268C265.918 166.205 266.073 166.11 266.204 165.984C266.334 165.857 266.434 165.698 266.506 165.509L267.315 165.736C267.23 166.01 267.087 166.252 266.885 166.46C266.684 166.666 266.436 166.827 266.14 166.943C265.844 167.057 265.511 167.114 265.142 167.114ZM270.877 169.159C270.472 169.159 270.124 169.107 269.833 169.003C269.542 168.901 269.299 168.766 269.105 168.598C268.913 168.432 268.76 168.255 268.647 168.065L269.314 167.597C269.39 167.696 269.486 167.81 269.602 167.938C269.718 168.068 269.877 168.18 270.078 168.275C270.282 168.372 270.548 168.42 270.877 168.42C271.317 168.42 271.681 168.314 271.967 168.101C272.254 167.888 272.397 167.554 272.397 167.099V165.991H272.326C272.264 166.091 272.177 166.214 272.063 166.361C271.952 166.505 271.791 166.634 271.58 166.748C271.372 166.859 271.09 166.915 270.735 166.915C270.295 166.915 269.899 166.811 269.549 166.602C269.201 166.394 268.925 166.091 268.721 165.693C268.52 165.295 268.42 164.812 268.42 164.244C268.42 163.686 268.518 163.199 268.714 162.785C268.911 162.368 269.184 162.046 269.535 161.819C269.885 161.589 270.29 161.474 270.749 161.474C271.104 161.474 271.386 161.534 271.594 161.652C271.805 161.768 271.966 161.901 272.077 162.05C272.191 162.196 272.278 162.317 272.34 162.412H272.425V161.545H273.235V167.156C273.235 167.625 273.128 168.006 272.915 168.3C272.705 168.596 272.421 168.812 272.063 168.95C271.708 169.089 271.313 169.159 270.877 169.159ZM270.849 166.162C271.185 166.162 271.469 166.085 271.701 165.931C271.933 165.777 272.109 165.556 272.23 165.267C272.351 164.978 272.411 164.633 272.411 164.23C272.411 163.837 272.352 163.49 272.233 163.19C272.115 162.889 271.94 162.653 271.708 162.483C271.476 162.312 271.189 162.227 270.849 162.227C270.493 162.227 270.198 162.317 269.961 162.497C269.726 162.677 269.55 162.919 269.432 163.222C269.316 163.525 269.258 163.861 269.258 164.23C269.258 164.609 269.317 164.944 269.435 165.235C269.556 165.524 269.733 165.751 269.968 165.917C270.205 166.08 270.498 166.162 270.849 166.162ZM276.985 167.114C276.492 167.114 276.06 166.996 275.689 166.762C275.319 166.528 275.031 166.2 274.822 165.778C274.616 165.357 274.513 164.865 274.513 164.301C274.513 163.733 274.616 163.237 274.822 162.813C275.031 162.389 275.319 162.06 275.689 161.826C276.06 161.592 276.492 161.474 276.985 161.474C277.477 161.474 277.908 161.592 278.278 161.826C278.649 162.06 278.938 162.389 279.144 162.813C279.352 163.237 279.456 163.733 279.456 164.301C279.456 164.865 279.352 165.357 279.144 165.778C278.938 166.2 278.649 166.528 278.278 166.762C277.908 166.996 277.477 167.114 276.985 167.114ZM276.985 166.361C277.359 166.361 277.667 166.265 277.908 166.073C278.15 165.881 278.328 165.629 278.444 165.317C278.56 165.004 278.618 164.666 278.618 164.301C278.618 163.937 278.56 163.597 278.444 163.282C278.328 162.967 278.15 162.713 277.908 162.518C277.667 162.324 277.359 162.227 276.985 162.227C276.611 162.227 276.303 162.324 276.062 162.518C275.82 162.713 275.641 162.967 275.525 163.282C275.409 163.597 275.351 163.937 275.351 164.301C275.351 164.666 275.409 165.004 275.525 165.317C275.641 165.629 275.82 165.881 276.062 166.073C276.303 166.265 276.611 166.361 276.985 166.361ZM281.347 167.057C281.171 167.057 281.021 166.994 280.896 166.869C280.77 166.743 280.707 166.593 280.707 166.418C280.707 166.242 280.77 166.092 280.896 165.967C281.021 165.841 281.171 165.778 281.347 165.778C281.522 165.778 281.672 165.841 281.798 165.967C281.923 166.092 281.986 166.242 281.986 166.418C281.986 166.534 281.956 166.64 281.897 166.737C281.84 166.834 281.763 166.912 281.666 166.972C281.571 167.028 281.465 167.057 281.347 167.057ZM285.706 167.114C285.194 167.114 284.754 166.993 284.385 166.751C284.015 166.51 283.731 166.177 283.532 165.754C283.333 165.33 283.234 164.846 283.234 164.301C283.234 163.747 283.336 163.258 283.539 162.835C283.745 162.408 284.032 162.076 284.399 161.837C284.768 161.595 285.199 161.474 285.691 161.474C286.075 161.474 286.421 161.545 286.728 161.688C287.036 161.83 287.288 162.028 287.485 162.284C287.681 162.54 287.803 162.838 287.85 163.179H287.012C286.949 162.93 286.806 162.71 286.586 162.518C286.368 162.324 286.075 162.227 285.706 162.227C285.379 162.227 285.092 162.312 284.846 162.483C284.602 162.651 284.412 162.889 284.275 163.197C284.14 163.502 284.072 163.861 284.072 164.273C284.072 164.694 284.138 165.061 284.271 165.374C284.406 165.686 284.595 165.929 284.839 166.102C285.085 166.274 285.374 166.361 285.706 166.361C285.923 166.361 286.121 166.323 286.299 166.247C286.476 166.171 286.627 166.062 286.75 165.92C286.873 165.778 286.96 165.608 287.012 165.409H287.85C287.803 165.731 287.686 166.021 287.499 166.279C287.314 166.535 287.069 166.738 286.764 166.89C286.461 167.039 286.108 167.114 285.706 167.114ZM291.292 167.114C290.799 167.114 290.367 166.996 289.995 166.762C289.626 166.528 289.337 166.2 289.129 165.778C288.923 165.357 288.82 164.865 288.82 164.301C288.82 163.733 288.923 163.237 289.129 162.813C289.337 162.389 289.626 162.06 289.995 161.826C290.367 161.592 290.799 161.474 291.292 161.474C291.784 161.474 292.215 161.592 292.584 161.826C292.956 162.06 293.245 162.389 293.451 162.813C293.659 163.237 293.763 163.733 293.763 164.301C293.763 164.865 293.659 165.357 293.451 165.778C293.245 166.2 292.956 166.528 292.584 166.762C292.215 166.996 291.784 167.114 291.292 167.114ZM291.292 166.361C291.666 166.361 291.973 166.265 292.215 166.073C292.456 165.881 292.635 165.629 292.751 165.317C292.867 165.004 292.925 164.666 292.925 164.301C292.925 163.937 292.867 163.597 292.751 163.282C292.635 162.967 292.456 162.713 292.215 162.518C291.973 162.324 291.666 162.227 291.292 162.227C290.917 162.227 290.61 162.324 290.368 162.518C290.127 162.713 289.948 162.967 289.832 163.282C289.716 163.597 289.658 163.937 289.658 164.301C289.658 164.666 289.716 165.004 289.832 165.317C289.948 165.629 290.127 165.881 290.368 166.073C290.61 166.265 290.917 166.361 291.292 166.361ZM295.042 167V161.545H295.852V162.398H295.923C296.037 162.107 296.22 161.88 296.474 161.719C296.727 161.556 297.031 161.474 297.386 161.474C297.746 161.474 298.046 161.556 298.285 161.719C298.526 161.88 298.714 162.107 298.849 162.398H298.906C299.046 162.116 299.255 161.892 299.535 161.727C299.814 161.558 300.149 161.474 300.54 161.474C301.027 161.474 301.426 161.627 301.736 161.933C302.046 162.236 302.202 162.708 302.202 163.349V167H301.363V163.349C301.363 162.947 301.253 162.659 301.033 162.487C300.813 162.314 300.554 162.227 300.256 162.227C299.872 162.227 299.575 162.343 299.364 162.575C299.153 162.805 299.048 163.096 299.048 163.449V167H298.196V163.264C298.196 162.954 298.095 162.704 297.894 162.515C297.693 162.323 297.434 162.227 297.116 162.227C296.898 162.227 296.695 162.285 296.506 162.401C296.318 162.517 296.167 162.678 296.051 162.884C295.937 163.088 295.881 163.323 295.881 163.591V167H295.042Z" fill="#5C5B5F"/>
<path d="M346.31 158.727V166H345.429V159.651H345.386L343.611 160.83V159.935L345.429 158.727H346.31ZM348.401 166V165.361L350.802 162.733C351.084 162.425 351.316 162.158 351.498 161.93C351.68 161.701 351.815 161.485 351.903 161.284C351.993 161.08 352.038 160.867 352.038 160.645C352.038 160.389 351.976 160.168 351.853 159.981C351.732 159.794 351.567 159.649 351.356 159.548C351.145 159.446 350.908 159.395 350.646 159.395C350.366 159.395 350.122 159.453 349.914 159.569C349.708 159.683 349.548 159.842 349.435 160.048C349.323 160.254 349.268 160.496 349.268 160.773H348.43C348.43 160.347 348.528 159.973 348.724 159.651C348.921 159.329 349.188 159.078 349.527 158.898C349.868 158.718 350.25 158.628 350.674 158.628C351.1 158.628 351.478 158.718 351.807 158.898C352.136 159.078 352.394 159.32 352.581 159.626C352.768 159.931 352.862 160.271 352.862 160.645C352.862 160.912 352.813 161.174 352.716 161.43C352.621 161.683 352.455 161.966 352.219 162.278C351.984 162.589 351.659 162.967 351.242 163.415L349.609 165.162V165.219H352.989V166H348.401ZM356.786 166.099C356.298 166.099 355.867 166.013 355.493 165.84C355.121 165.665 354.831 165.425 354.623 165.119C354.415 164.812 354.312 164.461 354.314 164.068C354.312 163.76 354.372 163.476 354.495 163.216C354.618 162.953 354.786 162.734 354.999 162.559C355.215 162.381 355.455 162.269 355.72 162.222V162.179C355.372 162.089 355.095 161.894 354.889 161.593C354.683 161.29 354.581 160.946 354.584 160.56C354.581 160.19 354.675 159.86 354.864 159.569C355.054 159.278 355.314 159.048 355.646 158.88C355.979 158.712 356.359 158.628 356.786 158.628C357.207 158.628 357.583 158.712 357.915 158.88C358.246 159.048 358.507 159.278 358.696 159.569C358.888 159.86 358.985 160.19 358.987 160.56C358.985 160.946 358.879 161.29 358.671 161.593C358.465 161.894 358.192 162.089 357.851 162.179V162.222C358.114 162.269 358.35 162.381 358.561 162.559C358.772 162.734 358.94 162.953 359.065 163.216C359.191 163.476 359.255 163.76 359.257 164.068C359.255 164.461 359.148 164.812 358.938 165.119C358.729 165.425 358.439 165.665 358.067 165.84C357.698 166.013 357.271 166.099 356.786 166.099ZM356.786 165.318C357.115 165.318 357.399 165.265 357.638 165.158C357.877 165.052 358.062 164.902 358.192 164.707C358.322 164.513 358.388 164.286 358.391 164.026C358.388 163.751 358.317 163.508 358.178 163.298C358.038 163.087 357.847 162.921 357.606 162.8C357.367 162.68 357.093 162.619 356.786 162.619C356.475 162.619 356.198 162.68 355.955 162.8C355.713 162.921 355.522 163.087 355.383 163.298C355.246 163.508 355.178 163.751 355.18 164.026C355.178 164.286 355.241 164.513 355.369 164.707C355.499 164.902 355.685 165.052 355.926 165.158C356.168 165.265 356.454 165.318 356.786 165.318ZM356.786 161.866C357.046 161.866 357.277 161.814 357.478 161.71C357.682 161.606 357.841 161.46 357.957 161.273C358.073 161.086 358.133 160.867 358.135 160.616C358.133 160.37 358.075 160.156 357.961 159.974C357.847 159.789 357.69 159.647 357.489 159.548C357.287 159.446 357.053 159.395 356.786 159.395C356.513 159.395 356.275 159.446 356.072 159.548C355.868 159.647 355.711 159.789 355.599 159.974C355.488 160.156 355.434 160.37 355.436 160.616C355.434 160.867 355.489 161.086 355.603 161.273C355.719 161.46 355.879 161.606 356.082 161.71C356.286 161.814 356.52 161.866 356.786 161.866ZM369.411 161H368.53C368.478 160.747 368.387 160.524 368.257 160.332C368.129 160.141 367.972 159.98 367.788 159.849C367.606 159.717 367.403 159.617 367.181 159.551C366.958 159.485 366.726 159.452 366.485 159.452C366.044 159.452 365.645 159.563 365.288 159.786C364.933 160.008 364.65 160.336 364.439 160.769C364.231 161.202 364.127 161.734 364.127 162.364C364.127 162.993 364.231 163.525 364.439 163.958C364.65 164.391 364.933 164.719 365.288 164.942C365.645 165.164 366.044 165.276 366.485 165.276C366.726 165.276 366.958 165.242 367.181 165.176C367.403 165.11 367.606 165.012 367.788 164.881C367.972 164.749 368.129 164.587 368.257 164.395C368.387 164.201 368.478 163.978 368.53 163.727H369.411C369.344 164.099 369.224 164.432 369.048 164.725C368.873 165.019 368.655 165.268 368.395 165.474C368.135 165.678 367.842 165.833 367.518 165.94C367.196 166.046 366.852 166.099 366.485 166.099C365.864 166.099 365.313 165.948 364.83 165.645C364.347 165.342 363.967 164.911 363.69 164.352C363.413 163.794 363.274 163.131 363.274 162.364C363.274 161.597 363.413 160.934 363.69 160.375C363.967 159.816 364.347 159.385 364.83 159.082C365.313 158.779 365.864 158.628 366.485 158.628C366.852 158.628 367.196 158.681 367.518 158.788C367.842 158.894 368.135 159.05 368.395 159.256C368.655 159.46 368.873 159.709 369.048 160.002C369.224 160.293 369.344 160.626 369.411 161ZM370.72 166V160.545H371.558V166H370.72ZM371.146 159.636C370.983 159.636 370.842 159.581 370.724 159.469C370.608 159.358 370.55 159.224 370.55 159.068C370.55 158.912 370.608 158.778 370.724 158.667C370.842 158.556 370.983 158.5 371.146 158.5C371.31 158.5 371.449 158.556 371.565 158.667C371.684 158.778 371.743 158.912 371.743 159.068C371.743 159.224 371.684 159.358 371.565 159.469C371.449 159.581 371.31 159.636 371.146 159.636ZM375.465 160.545V161.256H372.639V160.545H375.465ZM373.463 159.239H374.301V164.438C374.301 164.674 374.335 164.852 374.404 164.97C374.475 165.086 374.565 165.164 374.673 165.205C374.785 165.242 374.902 165.261 375.025 165.261C375.117 165.261 375.193 165.257 375.252 165.247C375.311 165.235 375.359 165.226 375.394 165.219L375.565 165.972C375.508 165.993 375.429 166.014 375.327 166.036C375.225 166.059 375.096 166.071 374.94 166.071C374.703 166.071 374.471 166.02 374.244 165.918C374.019 165.817 373.832 165.661 373.683 165.453C373.536 165.245 373.463 164.982 373.463 164.665V159.239ZM377.266 168.045C377.124 168.045 376.997 168.034 376.886 168.01C376.775 167.989 376.698 167.967 376.655 167.946L376.868 167.207C377.072 167.259 377.252 167.278 377.408 167.264C377.564 167.25 377.703 167.18 377.823 167.055C377.946 166.932 378.059 166.732 378.161 166.455L378.317 166.028L376.3 160.545H377.209L378.715 164.892H378.771L380.277 160.545H381.186L378.871 166.795C378.767 167.077 378.638 167.31 378.484 167.495C378.33 167.682 378.151 167.821 377.948 167.911C377.746 168 377.519 168.045 377.266 168.045ZM385.219 166V158.727H387.676C388.244 158.727 388.711 158.824 389.075 159.018C389.44 159.21 389.71 159.474 389.885 159.81C390.06 160.147 390.148 160.529 390.148 160.957C390.148 161.386 390.06 161.766 389.885 162.097C389.71 162.429 389.441 162.689 389.079 162.879C388.716 163.066 388.254 163.159 387.69 163.159H385.702V162.364H387.662C388.05 162.364 388.363 162.307 388.599 162.193C388.838 162.08 389.011 161.919 389.118 161.71C389.227 161.5 389.281 161.249 389.281 160.957C389.281 160.666 389.227 160.412 389.118 160.194C389.009 159.976 388.835 159.808 388.596 159.69C388.357 159.569 388.041 159.509 387.648 159.509H386.099V166H385.219ZM388.642 162.733L390.432 166H389.409L387.648 162.733H388.642ZM393.502 166.114C393.048 166.114 392.647 165.999 392.299 165.769C391.951 165.537 391.678 165.21 391.482 164.789C391.285 164.365 391.187 163.865 391.187 163.287C391.187 162.714 391.285 162.217 391.482 161.795C391.678 161.374 391.952 161.049 392.302 160.819C392.653 160.589 393.057 160.474 393.517 160.474C393.872 160.474 394.152 160.534 394.358 160.652C394.567 160.768 394.725 160.901 394.834 161.05C394.945 161.196 395.032 161.317 395.093 161.412H395.164V158.727H396.002V166H395.193V165.162H395.093C395.032 165.261 394.944 165.387 394.831 165.538C394.717 165.687 394.555 165.821 394.344 165.94C394.133 166.056 393.853 166.114 393.502 166.114ZM393.616 165.361C393.952 165.361 394.236 165.273 394.468 165.098C394.7 164.92 394.877 164.675 394.998 164.363C395.118 164.048 395.179 163.685 395.179 163.273C395.179 162.866 395.119 162.509 395.001 162.204C394.883 161.896 394.708 161.657 394.475 161.487C394.243 161.314 393.957 161.227 393.616 161.227C393.261 161.227 392.965 161.318 392.728 161.501C392.494 161.681 392.318 161.926 392.199 162.236C392.083 162.544 392.025 162.889 392.025 163.273C392.025 163.661 392.084 164.014 392.203 164.331C392.324 164.646 392.501 164.897 392.735 165.084C392.972 165.268 393.266 165.361 393.616 165.361ZM398.904 165.006L398.847 165.389C398.807 165.659 398.745 165.948 398.662 166.256C398.582 166.563 398.498 166.853 398.41 167.126C398.323 167.398 398.25 167.615 398.194 167.776H397.554C397.585 167.624 397.625 167.424 397.675 167.175C397.725 166.927 397.775 166.649 397.824 166.341C397.876 166.036 397.919 165.723 397.952 165.403L397.995 165.006H398.904ZM403.383 166V158.727H404.263V165.219H407.644V166H403.383ZM411.11 166.114C410.617 166.114 410.185 165.996 409.814 165.762C409.444 165.528 409.156 165.2 408.947 164.778C408.741 164.357 408.638 163.865 408.638 163.301C408.638 162.733 408.741 162.237 408.947 161.813C409.156 161.389 409.444 161.06 409.814 160.826C410.185 160.592 410.617 160.474 411.11 160.474C411.602 160.474 412.033 160.592 412.403 160.826C412.774 161.06 413.063 161.389 413.269 161.813C413.477 162.237 413.581 162.733 413.581 163.301C413.581 163.865 413.477 164.357 413.269 164.778C413.063 165.2 412.774 165.528 412.403 165.762C412.033 165.996 411.602 166.114 411.11 166.114ZM411.11 165.361C411.484 165.361 411.792 165.265 412.033 165.073C412.275 164.881 412.453 164.629 412.569 164.317C412.685 164.004 412.743 163.666 412.743 163.301C412.743 162.937 412.685 162.597 412.569 162.282C412.453 161.967 412.275 161.713 412.033 161.518C411.792 161.324 411.484 161.227 411.11 161.227C410.736 161.227 410.428 161.324 410.187 161.518C409.945 161.713 409.766 161.967 409.65 162.282C409.534 162.597 409.476 162.937 409.476 163.301C409.476 163.666 409.534 164.004 409.65 164.317C409.766 164.629 409.945 164.881 410.187 165.073C410.428 165.265 410.736 165.361 411.11 165.361ZM415.699 162.719V166H414.861V160.545H415.67V161.398H415.741C415.869 161.121 416.063 160.898 416.324 160.73C416.584 160.56 416.92 160.474 417.332 160.474C417.702 160.474 418.025 160.55 418.302 160.702C418.579 160.851 418.794 161.078 418.948 161.384C419.102 161.687 419.179 162.07 419.179 162.534V166H418.341V162.591C418.341 162.162 418.23 161.829 418.007 161.589C417.785 161.348 417.479 161.227 417.091 161.227C416.823 161.227 416.584 161.285 416.374 161.401C416.165 161.517 416.001 161.687 415.88 161.909C415.759 162.132 415.699 162.402 415.699 162.719ZM422.77 166.114C422.316 166.114 421.914 165.999 421.566 165.769C421.218 165.537 420.946 165.21 420.749 164.789C420.553 164.365 420.455 163.865 420.455 163.287C420.455 162.714 420.553 162.217 420.749 161.795C420.946 161.374 421.219 161.049 421.57 160.819C421.92 160.589 422.325 160.474 422.784 160.474C423.139 160.474 423.42 160.534 423.626 160.652C423.834 160.768 423.993 160.901 424.102 161.05C424.213 161.196 424.299 161.317 424.361 161.412H424.432V158.727H425.27V166H424.46V165.162H424.361C424.299 165.261 424.212 165.387 424.098 165.538C423.985 165.687 423.822 165.821 423.612 165.94C423.401 166.056 423.12 166.114 422.77 166.114ZM422.884 165.361C423.22 165.361 423.504 165.273 423.736 165.098C423.968 164.92 424.144 164.675 424.265 164.363C424.386 164.048 424.446 163.685 424.446 163.273C424.446 162.866 424.387 162.509 424.269 162.204C424.15 161.896 423.975 161.657 423.743 161.487C423.511 161.314 423.225 161.227 422.884 161.227C422.529 161.227 422.233 161.318 421.996 161.501C421.762 161.681 421.585 161.926 421.467 162.236C421.351 162.544 421.293 162.889 421.293 163.273C421.293 163.661 421.352 164.014 421.47 164.331C421.591 164.646 421.769 164.897 422.003 165.084C422.24 165.268 422.533 165.361 422.884 165.361ZM429.137 166.114C428.645 166.114 428.213 165.996 427.841 165.762C427.472 165.528 427.183 165.2 426.975 164.778C426.769 164.357 426.666 163.865 426.666 163.301C426.666 162.733 426.769 162.237 426.975 161.813C427.183 161.389 427.472 161.06 427.841 160.826C428.213 160.592 428.645 160.474 429.137 160.474C429.63 160.474 430.061 160.592 430.43 160.826C430.802 161.06 431.09 161.389 431.296 161.813C431.505 162.237 431.609 162.733 431.609 163.301C431.609 163.865 431.505 164.357 431.296 164.778C431.09 165.2 430.802 165.528 430.43 165.762C430.061 165.996 429.63 166.114 429.137 166.114ZM429.137 165.361C429.511 165.361 429.819 165.265 430.061 165.073C430.302 164.881 430.481 164.629 430.597 164.317C430.713 164.004 430.771 163.666 430.771 163.301C430.771 162.937 430.713 162.597 430.597 162.282C430.481 161.967 430.302 161.713 430.061 161.518C429.819 161.324 429.511 161.227 429.137 161.227C428.763 161.227 428.455 161.324 428.214 161.518C427.972 161.713 427.794 161.967 427.678 162.282C427.562 162.597 427.504 162.937 427.504 163.301C427.504 163.666 427.562 164.004 427.678 164.317C427.794 164.629 427.972 164.881 428.214 165.073C428.455 165.265 428.763 165.361 429.137 165.361ZM433.726 162.719V166H432.888V160.545H433.698V161.398H433.769C433.897 161.121 434.091 160.898 434.351 160.73C434.612 160.56 434.948 160.474 435.36 160.474C435.729 160.474 436.052 160.55 436.329 160.702C436.606 160.851 436.822 161.078 436.975 161.384C437.129 161.687 437.206 162.07 437.206 162.534V166H436.368V162.591C436.368 162.162 436.257 161.829 436.034 161.589C435.812 161.348 435.507 161.227 435.118 161.227C434.851 161.227 434.612 161.285 434.401 161.401C434.193 161.517 434.028 161.687 433.907 161.909C433.787 162.132 433.726 162.402 433.726 162.719ZM441.664 166V158.727H446.053V159.509H442.545V161.966H445.826V162.747H442.545V165.219H446.11V166H441.664ZM453.493 161H452.612C452.56 160.747 452.469 160.524 452.339 160.332C452.211 160.141 452.055 159.98 451.87 159.849C451.688 159.717 451.485 159.617 451.263 159.551C451.04 159.485 450.808 159.452 450.567 159.452C450.126 159.452 449.727 159.563 449.37 159.786C449.015 160.008 448.732 160.336 448.521 160.769C448.313 161.202 448.209 161.734 448.209 162.364C448.209 162.993 448.313 163.525 448.521 163.958C448.732 164.391 449.015 164.719 449.37 164.942C449.727 165.164 450.126 165.276 450.567 165.276C450.808 165.276 451.04 165.242 451.263 165.176C451.485 165.11 451.688 165.012 451.87 164.881C452.055 164.749 452.211 164.587 452.339 164.395C452.469 164.201 452.56 163.978 452.612 163.727H453.493C453.426 164.099 453.306 164.432 453.131 164.725C452.955 165.019 452.738 165.268 452.477 165.474C452.217 165.678 451.924 165.833 451.6 165.94C451.278 166.046 450.934 166.099 450.567 166.099C449.946 166.099 449.395 165.948 448.912 165.645C448.429 165.342 448.049 164.911 447.772 164.352C447.495 163.794 447.356 163.131 447.356 162.364C447.356 161.597 447.495 160.934 447.772 160.375C448.049 159.816 448.429 159.385 448.912 159.082C449.395 158.779 449.946 158.628 450.567 158.628C450.934 158.628 451.278 158.681 451.6 158.788C451.924 158.894 452.217 159.05 452.477 159.256C452.738 159.46 452.955 159.709 453.131 160.002C453.306 160.293 453.426 160.626 453.493 161ZM457.345 158.727V166H456.464V159.651H456.422L454.646 160.83V159.935L456.464 158.727H457.345ZM459.863 158.727L462.022 164.849H462.107L464.266 158.727H465.189L462.519 166H461.61L458.939 158.727H459.863ZM469.007 166V165.361L471.407 162.733C471.689 162.425 471.921 162.158 472.103 161.93C472.286 161.701 472.421 161.485 472.508 161.284C472.598 161.08 472.643 160.867 472.643 160.645C472.643 160.389 472.582 160.168 472.458 159.981C472.338 159.794 472.172 159.649 471.961 159.548C471.751 159.446 471.514 159.395 471.251 159.395C470.972 159.395 470.728 159.453 470.52 159.569C470.314 159.683 470.154 159.842 470.04 160.048C469.929 160.254 469.873 160.496 469.873 160.773H469.035C469.035 160.347 469.133 159.973 469.33 159.651C469.526 159.329 469.794 159.078 470.132 158.898C470.473 158.718 470.856 158.628 471.279 158.628C471.706 158.628 472.083 158.718 472.412 158.898C472.741 159.078 472.999 159.32 473.186 159.626C473.373 159.931 473.467 160.271 473.467 160.645C473.467 160.912 473.418 161.174 473.321 161.43C473.227 161.683 473.061 161.966 472.824 162.278C472.59 162.589 472.264 162.967 471.848 163.415L470.214 165.162V165.219H473.595V166H469.007ZM480.956 158.727V166H480.104L476.141 160.29H476.07V166H475.189V158.727H476.042L480.019 164.452H480.09V158.727H480.956ZM483.145 158.727L485.02 161.753H485.077L486.952 158.727H487.988L485.702 162.364L487.988 166H486.952L485.077 163.031H485.02L483.145 166H482.108L484.452 162.364L482.108 158.727H483.145ZM490.271 165.006L490.214 165.389C490.174 165.659 490.112 165.948 490.029 166.256C489.949 166.563 489.865 166.853 489.777 167.126C489.69 167.398 489.618 167.615 489.561 167.776H488.922C488.952 167.624 488.993 167.424 489.042 167.175C489.092 166.927 489.142 166.649 489.191 166.341C489.243 166.036 489.286 165.723 489.319 165.403L489.362 165.006H490.271ZM499.523 158.727H500.403V163.543C500.403 164.04 500.286 164.484 500.052 164.874C499.82 165.263 499.492 165.569 499.068 165.794C498.644 166.017 498.147 166.128 497.577 166.128C497.006 166.128 496.509 166.017 496.085 165.794C495.661 165.569 495.332 165.263 495.098 164.874C494.866 164.484 494.75 164.04 494.75 163.543V158.727H495.631V163.472C495.631 163.827 495.709 164.143 495.865 164.42C496.021 164.694 496.244 164.911 496.532 165.07C496.824 165.226 497.172 165.304 497.577 165.304C497.981 165.304 498.329 165.226 498.621 165.07C498.912 164.911 499.134 164.694 499.288 164.42C499.444 164.143 499.523 163.827 499.523 163.472V158.727ZM502.162 166V158.727H503.043V162.335H503.128L506.395 158.727H507.545L504.491 162.009L507.545 166H506.48L503.952 162.619L503.043 163.642V166H502.162Z" fill="#5C5B5F"/>
</g>
<defs>
<clipPath id="clip0_2005_7">
<rect width="595" height="239" fill="white"/>
</clipPath>
</defs>
</svg>
