<svg width="62" height="63" viewBox="0 0 62 63" fill="none" xmlns="http://www.w3.org/2000/svg">
<circle cx="31" cy="31.5" r="31" fill="#BF83FF"/>
<path opacity="0.982" fill-rule="evenodd" clip-rule="evenodd" d="M30.4553 14.965C35.1344 15.1437 37.9398 17.5251 38.8713 22.1095C39.129 26.0556 37.4943 28.9013 33.967 30.6466C29.6324 32.0008 26.2618 30.7697 23.8557 26.9533C22.1637 23.0365 22.8701 19.6256 25.9748 16.7208C27.3148 15.7164 28.8082 15.1311 30.4553 14.965Z" fill="white"/>
<path opacity="0.973" fill-rule="evenodd" clip-rule="evenodd" d="M25.4902 31.1915C26.1063 31.4389 26.7118 31.7214 27.3066 32.0392C27.4075 34.7427 27.468 37.4471 27.4882 40.1525C28.3359 41.3231 29.1835 42.4936 30.0312 43.6642C30.2815 43.9754 30.5842 44.2176 30.9394 44.3908C31.2946 44.2176 31.5973 43.9754 31.8476 43.6642C32.6953 42.4936 33.5429 41.3231 34.3906 40.1525C34.4108 37.4471 34.4713 34.7427 34.5722 32.0392C35.1309 31.7831 35.6759 31.5006 36.207 31.1915C40.6102 33.293 43.1935 36.7644 43.957 41.6056C44.1161 43.4586 44.1766 45.3154 44.1386 47.1759C42.403 47.1759 40.6672 47.1759 38.9316 47.1759C38.9316 46.5301 38.9316 45.8842 38.9316 45.2384C38.4069 45.2384 37.8821 45.2384 37.3574 45.2384C37.3574 45.8842 37.3574 46.5301 37.3574 47.1759C33.0788 47.1759 28.8 47.1759 24.5214 47.1759C24.5214 46.5301 24.5214 45.8842 24.5214 45.2384C23.9967 45.2384 23.4719 45.2384 22.9472 45.2384C22.9472 45.8842 22.9472 46.5301 22.9472 47.1759C21.2116 47.1759 19.4758 47.1759 17.7402 47.1759C17.6191 44.6885 17.8007 42.2262 18.2851 39.7892C19.4429 35.8676 21.8445 33.0017 25.4902 31.1915Z" fill="white"/>
<path opacity="0.953" fill-rule="evenodd" clip-rule="evenodd" d="M29.0022 32.6447C30.2939 32.8061 31.5855 32.8061 32.8772 32.6447C32.8974 35.0669 32.8772 37.4888 32.8167 39.9103C32.2102 40.6978 31.5847 41.4647 30.9397 42.2111C30.2948 41.4647 29.6692 40.6978 29.0628 39.9103C29.0022 37.4888 28.982 35.0669 29.0022 32.6447Z" fill="white"/>
</svg>
