<svg width="62" height="63" viewBox="0 0 62 63" fill="none" xmlns="http://www.w3.org/2000/svg">
<circle cx="31" cy="31.5" r="31" fill="#FA5A7D"/>
<g clip-path="url(#clip0_262_1129)">
<path opacity="0.987" fill-rule="evenodd" clip-rule="evenodd" d="M30.7882 18.2705C33.1944 18.3375 34.9199 19.4475 35.9649 21.6006C36.8338 24.1096 36.2787 26.2388 34.2999 27.9883C32.3372 29.3363 30.2988 29.4574 28.1847 28.3516C25.9708 26.8175 25.1735 24.7286 25.7931 22.085C26.666 19.7683 28.331 18.4968 30.7882 18.2705Z" fill="white"/>
<path opacity="0.982" fill-rule="evenodd" clip-rule="evenodd" d="M21.1611 23.2959C23.6184 23.3173 25.0816 24.5282 25.5507 26.9287C25.6239 29.0142 24.6956 30.4472 22.7656 31.2275C20.7763 31.7286 19.2021 31.1433 18.0429 29.4717C17.0526 27.4717 17.3654 25.7057 18.9814 24.1738C19.6341 23.6841 20.3606 23.3915 21.1611 23.2959Z" fill="white"/>
<path opacity="0.982" fill-rule="evenodd" clip-rule="evenodd" d="M40.0514 23.2959C42.4856 23.2984 43.9488 24.4892 44.4411 26.8682C44.5747 28.8727 43.737 30.2955 41.9284 31.1367C39.7913 31.798 38.106 31.2026 36.8727 29.3506C36.0805 27.726 36.2218 26.1922 37.2966 24.749C38.0465 23.9352 38.9648 23.4508 40.0514 23.2959Z" fill="white"/>
<path opacity="0.988" fill-rule="evenodd" clip-rule="evenodd" d="M28.0029 30.1377C29.9809 30.1276 31.9588 30.1377 33.9365 30.168C35.8478 30.3439 37.1798 31.3127 37.9326 33.0742C38.0855 33.5157 38.1763 33.9698 38.2051 34.4365C38.2455 37.5648 38.2455 40.693 38.2051 43.8213C38.1344 44.2956 37.862 44.568 37.3877 44.6387C33.109 44.6791 28.8304 44.6791 24.5518 44.6387C24.0775 44.568 23.805 44.2956 23.7344 43.8213C23.694 40.693 23.694 37.5648 23.7344 34.4365C23.8955 32.5603 24.834 31.2384 26.5498 30.4707C27.031 30.3081 27.5154 30.1971 28.0029 30.1377Z" fill="white"/>
<path opacity="0.985" fill-rule="evenodd" clip-rule="evenodd" d="M15.4697 42.4893C15.4697 40.4105 15.4697 38.3317 15.4697 36.2529C15.9369 34.1612 17.2285 32.92 19.3447 32.5293C20.3544 32.4789 21.3636 32.489 22.3721 32.5596C22.2135 33.0122 22.1025 33.4764 22.0391 33.9522C21.9987 37.3629 21.9987 40.7738 22.0391 44.1846C22.0888 44.343 22.1191 44.5045 22.1299 44.669C20.5943 44.6938 19.0605 44.6635 17.5283 44.5781C16.4415 44.2676 15.7553 43.5713 15.4697 42.4893Z" fill="white"/>
<path opacity="0.985" fill-rule="evenodd" clip-rule="evenodd" d="M46.4697 36.2529C46.4697 38.3317 46.4697 40.4105 46.4697 42.4893C46.1841 43.5713 45.4979 44.2676 44.4111 44.5781C42.879 44.6635 41.3452 44.6938 39.8096 44.669C39.8203 44.5045 39.8506 44.343 39.9004 44.1846C39.9408 40.7738 39.9408 37.3629 39.9004 33.9522C39.8369 33.4764 39.726 33.0122 39.5674 32.5596C40.5759 32.489 41.585 32.4789 42.5947 32.5293C44.7109 32.92 46.0025 34.1612 46.4697 36.2529Z" fill="white"/>
</g>
<defs>
<clipPath id="clip0_262_1129">
<rect width="31" height="31" fill="white" transform="translate(15.5 16)"/>
</clipPath>
</defs>
</svg>
