<svg width="595" height="239" viewBox="0 0 595 239" fill="none" xmlns="http://www.w3.org/2000/svg">
<g clip-path="url(#clip0_2011_38)">
<path d="M594.97 238.931H0.25V0.470703C5.3 0.470703 9.13 4.19074 11.84 8.32074C15.18 13.4207 16.84 19.4308 16.84 25.5208V188.781C16.84 195.731 19.21 202.501 23.64 207.861C26.21 210.981 28.99 213.471 31.59 215.421C36.77 219.301 43.09 221.351 49.56 221.351H594.97V238.931Z" fill="#7E211F"/>
<path d="M71.8902 151.23H49.1802V173.94H71.8902V151.23Z" fill="#7E211F"/>
<path d="M63.2801 167.7C62.7601 167.68 62.2601 167.58 61.7701 167.4C60.8901 167.06 60.0901 166.58 59.3501 166C58.8501 165.61 58.4001 165.16 57.9501 164.71C57.3101 164.06 56.7601 163.35 56.3001 162.57C55.9201 161.93 55.6301 161.26 55.4901 160.53C55.4301 160.24 55.4001 159.94 55.4401 159.65C55.4701 159.44 55.5401 159.26 55.6901 159.11C56.1801 158.62 56.6701 158.13 57.1601 157.64C57.3001 157.5 57.4801 157.44 57.6701 157.51C57.8001 157.56 57.8901 157.65 57.9501 157.77C58.3301 158.49 58.7101 159.22 59.1001 159.94C59.2401 160.2 59.1601 160.51 58.9701 160.7C58.8001 160.87 58.6401 161.03 58.4701 161.2C58.4001 161.27 58.3801 161.34 58.4001 161.43C58.4701 161.69 58.6001 161.93 58.7401 162.16C58.9801 162.54 59.2601 162.89 59.5901 163.21C59.8601 163.47 60.1301 163.74 60.4101 163.98C60.7401 164.26 61.0901 164.5 61.5001 164.66C61.5801 164.69 61.6701 164.71 61.7601 164.73C61.8201 164.73 61.8801 164.71 61.9201 164.66C62.1101 164.46 62.3101 164.27 62.5001 164.07C62.7201 163.85 63.0701 163.81 63.3301 163.97C64.0001 164.37 64.6701 164.76 65.3401 165.16C65.4701 165.24 65.5801 165.33 65.6301 165.47C65.6901 165.65 65.6501 165.82 65.5201 165.96C65.2101 166.27 64.9001 166.58 64.5901 166.88C64.4201 167.05 64.2501 167.21 64.0801 167.39C63.8701 167.6 63.6201 167.7 63.3301 167.7C63.3101 167.7 63.3001 167.7 63.2801 167.7Z" fill="white"/>
<path d="M198.12 151.23H175.41V173.94H198.12V151.23Z" fill="#1F140F"/>
<path d="M184.56 163.031C184.66 166.041 185.77 168.111 186.77 168.111C187.77 168.111 188.88 166.051 188.98 163.031H184.57H184.56Z" fill="white"/>
<path d="M186.77 157.07C185.77 157.07 184.66 159.13 184.56 162.15H188.97C188.87 159.14 187.76 157.07 186.76 157.07H186.77Z" fill="white"/>
<path d="M189.86 162.151H192.71C192.52 159.521 190.62 157.371 188.12 156.791C189.11 157.731 189.79 159.721 189.86 162.151Z" fill="white"/>
<path d="M189.86 163.031C189.79 165.461 189.11 167.451 188.12 168.391C190.62 167.811 192.52 165.661 192.71 163.031H189.86Z" fill="white"/>
<path d="M183.68 163.031H180.83C181.02 165.661 182.92 167.811 185.42 168.391C184.43 167.451 183.75 165.461 183.68 163.031Z" fill="white"/>
<path d="M183.68 162.151C183.75 159.721 184.43 157.731 185.42 156.791C182.92 157.371 181.02 159.521 180.83 162.151H183.68Z" fill="white"/>
<path d="M333.01 151.23H310.3V173.94H333.01V151.23Z" fill="#7E211F"/>
<path d="M321.65 156.361C318.99 156.361 316.84 158.511 316.84 161.171C316.84 163.431 320.34 167.531 321.37 168.691C321.52 168.861 321.78 168.861 321.93 168.691C322.96 167.531 326.46 163.441 326.46 161.171C326.46 158.511 324.31 156.361 321.65 156.361ZM321.65 163.311C320.34 163.311 319.27 162.241 319.27 160.931C319.27 159.621 320.34 158.551 321.65 158.551C322.96 158.551 324.03 159.621 324.03 160.931C324.03 162.241 322.96 163.311 321.65 163.311Z" fill="white"/>
<path d="M81.9798 163.23H84.0498V163.88H81.9798V165.96H81.3298V163.88H79.2598V163.23H81.3298V161.15H81.9798V163.23Z" fill="#5C5B5F"/>
<path d="M89.7398 159.221C91.2098 159.221 91.7798 160.091 91.7798 160.941C91.7798 161.541 91.3998 162.091 90.8498 162.341C91.6598 162.601 92.0498 163.191 92.0498 164.021C92.0498 165.321 91.0598 166.071 89.8198 166.071C88.5798 166.071 87.5298 165.401 87.5298 164.021C87.5298 163.221 87.9598 162.601 88.7098 162.341C88.1498 162.111 87.7698 161.551 87.7698 160.941C87.7698 159.831 88.7098 159.221 89.7498 159.221H89.7398ZM89.8198 165.361C90.6298 165.361 91.1998 164.801 91.1998 164.051C91.1998 163.301 90.5698 162.771 89.8098 162.771C89.0098 162.771 88.3798 163.281 88.3798 164.061C88.3798 164.841 88.9798 165.361 89.8198 165.361ZM89.8198 162.051C90.4598 162.051 90.9298 161.651 90.9298 160.971C90.9298 160.291 90.4598 159.931 89.7998 159.931C89.1398 159.931 88.6198 160.291 88.6198 160.971C88.6198 161.711 89.1498 162.051 89.8198 162.051Z" fill="#5C5B5F"/>
<path d="M96.89 160.04H94.17L93.81 161.98L93.83 162C94.12 161.67 94.63 161.52 95.08 161.52C96.28 161.52 97.26 162.29 97.26 163.83C97.26 164.97 96.47 166.07 94.9 166.07C93.73 166.07 92.78 165.36 92.75 164.14H93.56C93.61 164.83 94.17 165.36 94.98 165.36C95.79 165.36 96.41 164.84 96.41 163.76C96.41 162.87 95.79 162.23 94.89 162.23C94.38 162.23 93.95 162.49 93.64 162.87L92.95 162.83L93.58 159.33H96.91V160.04H96.89Z" fill="#5C5B5F"/>
<path d="M98.1198 161.601C98.0498 160.231 98.8598 159.211 100.29 159.211C101.47 159.211 102.4 159.891 102.4 161.151C102.4 162.341 101.6 162.941 100.76 163.461C99.9098 163.971 99.0298 164.401 98.8698 165.241H102.33V165.951H97.9298C98.0598 164.351 98.8698 163.781 99.8198 163.191C100.96 162.491 101.54 162.071 101.54 161.141C101.54 160.411 100.95 159.921 100.24 159.921C99.2998 159.921 98.8998 160.791 98.9298 161.591H98.1198V161.601Z" fill="#5C5B5F"/>
<path d="M107.7 162.111C107.82 162.111 107.94 162.111 108.05 162.111C108.73 162.111 109.33 161.741 109.33 161.011C109.33 160.281 108.82 159.931 108.13 159.931C107.25 159.931 106.87 160.611 106.86 161.391H106.05C106.1 160.111 106.78 159.211 108.13 159.211C109.3 159.211 110.18 159.771 110.18 161.021C110.18 161.611 109.76 162.121 109.25 162.361V162.381C110.07 162.561 110.47 163.211 110.47 164.011C110.47 165.361 109.41 166.061 108.15 166.061C106.78 166.061 105.88 165.251 105.91 163.861H106.72C106.75 164.741 107.23 165.341 108.16 165.341C108.95 165.341 109.62 164.851 109.62 164.041C109.62 163.231 108.98 162.751 108.19 162.751C108.03 162.751 107.86 162.751 107.7 162.781V162.101V162.111Z" fill="#5C5B5F"/>
<path d="M112.19 164.331C112.25 164.991 112.78 165.361 113.43 165.361C114.42 165.361 114.9 164.491 114.95 162.761L114.93 162.741C114.63 163.311 114.03 163.671 113.37 163.671C112 163.671 111.24 162.751 111.24 161.421C111.24 160.091 112.15 159.221 113.45 159.221C114.75 159.221 115.76 159.891 115.76 162.441C115.76 164.771 115.06 166.071 113.42 166.071C112.29 166.071 111.48 165.491 111.38 164.331H112.19ZM113.42 159.931C112.46 159.931 112.1 160.701 112.1 161.531C112.1 162.271 112.65 162.961 113.43 162.961C114.28 162.961 114.81 162.281 114.81 161.481C114.81 160.681 114.33 159.941 113.42 159.941V159.931Z" fill="#5C5B5F"/>
<path d="M117.47 164.331C117.53 164.991 118.06 165.361 118.71 165.361C119.7 165.361 120.18 164.491 120.23 162.761L120.21 162.741C119.91 163.311 119.31 163.671 118.65 163.671C117.28 163.671 116.52 162.751 116.52 161.421C116.52 160.091 117.43 159.221 118.73 159.221C120.03 159.221 121.04 159.891 121.04 162.441C121.04 164.771 120.34 166.071 118.7 166.071C117.57 166.071 116.76 165.491 116.66 164.331H117.47ZM118.7 159.931C117.74 159.931 117.38 160.701 117.38 161.531C117.38 162.271 117.93 162.961 118.71 162.961C119.56 162.961 120.09 162.281 120.09 161.481C120.09 160.681 119.61 159.941 118.7 159.941V159.931Z" fill="#5C5B5F"/>
<path d="M126.32 160.02C124.96 161.37 123.86 163.84 123.73 165.95H122.83C122.98 163.67 124.08 161.59 125.49 160.08H121.95V159.32H126.31V160.01L126.32 160.02Z" fill="#5C5B5F"/>
<path d="M131.47 162.111C131.59 162.111 131.71 162.111 131.82 162.111C132.5 162.111 133.1 161.741 133.1 161.011C133.1 160.281 132.59 159.931 131.9 159.931C131.02 159.931 130.64 160.611 130.63 161.391H129.82C129.87 160.111 130.55 159.211 131.9 159.211C133.07 159.211 133.95 159.771 133.95 161.021C133.95 161.611 133.53 162.121 133.02 162.361V162.381C133.84 162.561 134.24 163.211 134.24 164.011C134.24 165.361 133.18 166.061 131.92 166.061C130.55 166.061 129.65 165.251 129.68 163.861H130.49C130.52 164.741 131 165.341 131.93 165.341C132.72 165.341 133.39 164.851 133.39 164.041C133.39 163.231 132.75 162.751 131.96 162.751C131.8 162.751 131.63 162.751 131.47 162.781V162.101V162.111Z" fill="#5C5B5F"/>
<path d="M136.75 162.111C136.87 162.111 136.99 162.111 137.1 162.111C137.78 162.111 138.38 161.741 138.38 161.011C138.38 160.281 137.87 159.931 137.18 159.931C136.3 159.931 135.92 160.611 135.91 161.391H135.1C135.15 160.111 135.83 159.211 137.18 159.211C138.35 159.211 139.23 159.771 139.23 161.021C139.23 161.611 138.81 162.121 138.3 162.361V162.381C139.12 162.561 139.52 163.211 139.52 164.011C139.52 165.361 138.46 166.061 137.2 166.061C135.83 166.061 134.93 165.251 134.96 163.861H135.77C135.8 164.741 136.28 165.341 137.21 165.341C138 165.341 138.67 164.851 138.67 164.041C138.67 163.231 138.03 162.751 137.24 162.751C137.08 162.751 136.91 162.751 136.75 162.781V162.101V162.111Z" fill="#5C5B5F"/>
<path d="M142.56 159.221C144.03 159.221 144.6 160.091 144.6 160.941C144.6 161.541 144.22 162.091 143.67 162.341C144.48 162.601 144.87 163.191 144.87 164.021C144.87 165.321 143.88 166.071 142.64 166.071C141.4 166.071 140.35 165.401 140.35 164.021C140.35 163.221 140.78 162.601 141.53 162.341C140.97 162.111 140.59 161.551 140.59 160.941C140.59 159.831 141.53 159.221 142.57 159.221H142.56ZM142.64 165.361C143.45 165.361 144.02 164.801 144.02 164.051C144.02 163.301 143.39 162.771 142.63 162.771C141.83 162.771 141.2 163.281 141.2 164.061C141.2 164.841 141.8 165.361 142.64 165.361ZM142.64 162.051C143.28 162.051 143.75 161.651 143.75 160.971C143.75 160.291 143.28 159.931 142.62 159.931C141.96 159.931 141.44 160.291 141.44 160.971C141.44 161.711 141.97 162.051 142.64 162.051Z" fill="#5C5B5F"/>
<path d="M147.89 159.221C150 159.221 150.13 161.161 150.13 162.651C150.13 164.141 150 166.071 147.89 166.071C145.78 166.071 145.65 164.131 145.65 162.651C145.65 161.171 145.78 159.221 147.89 159.221ZM147.89 165.361C149.27 165.361 149.28 163.651 149.28 162.641C149.28 161.631 149.28 159.931 147.89 159.931C146.5 159.931 146.5 161.641 146.5 162.641C146.5 163.641 146.5 165.361 147.89 165.361Z" fill="#5C5B5F"/>
<path d="M204.003 167L202.341 161.545H203.222L204.401 165.722H204.457L205.622 161.545H206.517L207.668 165.707H207.724L208.903 161.545H209.784L208.122 167H207.298L206.105 162.81H206.02L204.827 167H204.003ZM212.128 167L210.466 161.545H211.347L212.526 165.722H212.582L213.747 161.545H214.642L215.793 165.707H215.849L217.028 161.545H217.909L216.247 167H215.423L214.23 162.81H214.145L212.952 167H212.128ZM220.253 167L218.591 161.545H219.472L220.651 165.722H220.707L221.872 161.545H222.767L223.918 165.707H223.974L225.153 161.545H226.034L224.372 167H223.548L222.355 162.81H222.27L221.077 167H220.253ZM227.011 167.057C226.835 167.057 226.685 166.994 226.56 166.869C226.434 166.743 226.371 166.593 226.371 166.418C226.371 166.242 226.434 166.092 226.56 165.967C226.685 165.841 226.835 165.778 227.011 165.778C227.186 165.778 227.336 165.841 227.462 165.967C227.587 166.092 227.65 166.242 227.65 166.418C227.65 166.534 227.62 166.64 227.561 166.737C227.504 166.834 227.427 166.912 227.33 166.972C227.236 167.028 227.129 167.057 227.011 167.057ZM229.267 167V159.727H230.148V166.219H233.529V167H229.267ZM236.995 167.114C236.502 167.114 236.07 166.996 235.699 166.762C235.329 166.528 235.04 166.2 234.832 165.778C234.626 165.357 234.523 164.865 234.523 164.301C234.523 163.733 234.626 163.237 234.832 162.813C235.04 162.389 235.329 162.06 235.699 161.826C236.07 161.592 236.502 161.474 236.995 161.474C237.487 161.474 237.918 161.592 238.287 161.826C238.659 162.06 238.948 162.389 239.154 162.813C239.362 163.237 239.466 163.733 239.466 164.301C239.466 164.865 239.362 165.357 239.154 165.778C238.948 166.2 238.659 166.528 238.287 166.762C237.918 166.996 237.487 167.114 236.995 167.114ZM236.995 166.361C237.369 166.361 237.676 166.265 237.918 166.073C238.159 165.881 238.338 165.629 238.454 165.317C238.57 165.004 238.628 164.666 238.628 164.301C238.628 163.937 238.57 163.597 238.454 163.282C238.338 162.967 238.159 162.713 237.918 162.518C237.676 162.324 237.369 162.227 236.995 162.227C236.621 162.227 236.313 162.324 236.071 162.518C235.83 162.713 235.651 162.967 235.535 163.282C235.419 163.597 235.361 163.937 235.361 164.301C235.361 164.666 235.419 165.004 235.535 165.317C235.651 165.629 235.83 165.881 236.071 166.073C236.313 166.265 236.621 166.361 236.995 166.361ZM242.947 169.159C242.542 169.159 242.194 169.107 241.903 169.003C241.612 168.901 241.369 168.766 241.175 168.598C240.983 168.432 240.831 168.255 240.717 168.065L241.385 167.597C241.461 167.696 241.556 167.81 241.672 167.938C241.788 168.068 241.947 168.18 242.148 168.275C242.352 168.372 242.618 168.42 242.947 168.42C243.388 168.42 243.751 168.314 244.037 168.101C244.324 167.888 244.467 167.554 244.467 167.099V165.991H244.396C244.335 166.091 244.247 166.214 244.133 166.361C244.022 166.505 243.861 166.634 243.65 166.748C243.442 166.859 243.16 166.915 242.805 166.915C242.365 166.915 241.97 166.811 241.619 166.602C241.271 166.394 240.995 166.091 240.792 165.693C240.59 165.295 240.49 164.812 240.49 164.244C240.49 163.686 240.588 163.199 240.785 162.785C240.981 162.368 241.255 162.046 241.605 161.819C241.955 161.589 242.36 161.474 242.819 161.474C243.175 161.474 243.456 161.534 243.665 161.652C243.875 161.768 244.036 161.901 244.148 162.05C244.261 162.196 244.349 162.317 244.41 162.412H244.496V161.545H245.305V167.156C245.305 167.625 245.199 168.006 244.986 168.3C244.775 168.596 244.491 168.812 244.133 168.95C243.778 169.089 243.383 169.159 242.947 169.159ZM242.919 166.162C243.255 166.162 243.539 166.085 243.771 165.931C244.003 165.777 244.18 165.556 244.3 165.267C244.421 164.978 244.481 164.633 244.481 164.23C244.481 163.837 244.422 163.49 244.304 163.19C244.185 162.889 244.01 162.653 243.778 162.483C243.546 162.312 243.26 162.227 242.919 162.227C242.564 162.227 242.268 162.317 242.031 162.497C241.797 162.677 241.62 162.919 241.502 163.222C241.386 163.525 241.328 163.861 241.328 164.23C241.328 164.609 241.387 164.944 241.506 165.235C241.626 165.524 241.804 165.751 242.038 165.917C242.275 166.08 242.568 166.162 242.919 166.162ZM246.839 167V161.545H247.677V167H246.839ZM247.265 160.636C247.102 160.636 246.961 160.581 246.843 160.469C246.727 160.358 246.669 160.224 246.669 160.068C246.669 159.912 246.727 159.778 246.843 159.667C246.961 159.556 247.102 159.5 247.265 159.5C247.429 159.5 247.568 159.556 247.684 159.667C247.803 159.778 247.862 159.912 247.862 160.068C247.862 160.224 247.803 160.358 247.684 160.469C247.568 160.581 247.429 160.636 247.265 160.636ZM251.641 161.545V162.256H248.701V161.545H251.641ZM249.582 167V160.793C249.582 160.48 249.655 160.22 249.802 160.011C249.949 159.803 250.139 159.647 250.374 159.543C250.608 159.438 250.855 159.386 251.116 159.386C251.322 159.386 251.49 159.403 251.62 159.436C251.75 159.469 251.847 159.5 251.911 159.528L251.67 160.253C251.627 160.239 251.568 160.221 251.492 160.2C251.419 160.178 251.322 160.168 251.201 160.168C250.924 160.168 250.724 160.237 250.601 160.377C250.48 160.517 250.42 160.722 250.42 160.991V167H249.582ZM254.878 167.114C254.353 167.114 253.899 166.998 253.518 166.766C253.139 166.531 252.847 166.205 252.641 165.786C252.437 165.364 252.336 164.874 252.336 164.315C252.336 163.757 252.437 163.264 252.641 162.838C252.847 162.41 253.133 162.076 253.5 161.837C253.87 161.595 254.301 161.474 254.793 161.474C255.077 161.474 255.358 161.522 255.635 161.616C255.912 161.711 256.164 161.865 256.391 162.078C256.618 162.289 256.799 162.568 256.934 162.916C257.069 163.264 257.137 163.693 257.137 164.202V164.557H252.932V163.832H256.284C256.284 163.525 256.223 163.25 256.1 163.009C255.979 162.767 255.806 162.576 255.581 162.437C255.359 162.297 255.096 162.227 254.793 162.227C254.459 162.227 254.17 162.31 253.926 162.476C253.685 162.639 253.499 162.852 253.369 163.115C253.239 163.378 253.174 163.66 253.174 163.96V164.443C253.174 164.855 253.245 165.204 253.387 165.491C253.531 165.775 253.731 165.991 253.987 166.141C254.243 166.287 254.54 166.361 254.878 166.361C255.098 166.361 255.297 166.33 255.475 166.268C255.655 166.205 255.81 166.11 255.94 165.984C256.07 165.857 256.171 165.698 256.242 165.509L257.051 165.736C256.966 166.01 256.823 166.252 256.622 166.46C256.421 166.666 256.172 166.827 255.876 166.943C255.58 167.057 255.248 167.114 254.878 167.114ZM258.412 167V161.545H259.221V162.398H259.292C259.406 162.107 259.589 161.88 259.843 161.719C260.096 161.556 260.4 161.474 260.755 161.474C261.115 161.474 261.415 161.556 261.654 161.719C261.895 161.88 262.083 162.107 262.218 162.398H262.275C262.415 162.116 262.624 161.892 262.904 161.727C263.183 161.558 263.518 161.474 263.909 161.474C264.396 161.474 264.795 161.627 265.105 161.933C265.416 162.236 265.571 162.708 265.571 163.349V167H264.733V163.349C264.733 162.947 264.623 162.659 264.402 162.487C264.182 162.314 263.923 162.227 263.625 162.227C263.241 162.227 262.944 162.343 262.733 162.575C262.523 162.805 262.417 163.096 262.417 163.449V167H261.565V163.264C261.565 162.954 261.464 162.704 261.263 162.515C261.062 162.323 260.803 162.227 260.485 162.227C260.268 162.227 260.064 162.285 259.875 162.401C259.688 162.517 259.536 162.678 259.42 162.884C259.306 163.088 259.25 163.323 259.25 163.591V167H258.412ZM267.714 167.057C267.539 167.057 267.388 166.994 267.263 166.869C267.137 166.743 267.075 166.593 267.075 166.418C267.075 166.242 267.137 166.092 267.263 165.967C267.388 165.841 267.539 165.778 267.714 165.778C267.889 165.778 268.039 165.841 268.165 165.967C268.29 166.092 268.353 166.242 268.353 166.418C268.353 166.534 268.323 166.64 268.264 166.737C268.207 166.834 268.13 166.912 268.033 166.972C267.939 167.028 267.832 167.057 267.714 167.057ZM272.073 167.114C271.561 167.114 271.121 166.993 270.752 166.751C270.382 166.51 270.098 166.177 269.9 165.754C269.701 165.33 269.601 164.846 269.601 164.301C269.601 163.747 269.703 163.258 269.907 162.835C270.113 162.408 270.399 162.076 270.766 161.837C271.135 161.595 271.566 161.474 272.059 161.474C272.442 161.474 272.788 161.545 273.096 161.688C273.403 161.83 273.655 162.028 273.852 162.284C274.048 162.54 274.17 162.838 274.218 163.179H273.38C273.316 162.93 273.174 162.71 272.953 162.518C272.736 162.324 272.442 162.227 272.073 162.227C271.746 162.227 271.46 162.312 271.213 162.483C270.97 162.651 270.779 162.889 270.642 163.197C270.507 163.502 270.439 163.861 270.439 164.273C270.439 164.694 270.506 165.061 270.638 165.374C270.773 165.686 270.962 165.929 271.206 166.102C271.453 166.274 271.741 166.361 272.073 166.361C272.291 166.361 272.488 166.323 272.666 166.247C272.843 166.171 272.994 166.062 273.117 165.92C273.24 165.778 273.328 165.608 273.38 165.409H274.218C274.17 165.731 274.053 166.021 273.866 166.279C273.681 166.535 273.436 166.738 273.131 166.89C272.828 167.039 272.475 167.114 272.073 167.114ZM277.659 167.114C277.166 167.114 276.734 166.996 276.363 166.762C275.993 166.528 275.704 166.2 275.496 165.778C275.29 165.357 275.187 164.865 275.187 164.301C275.187 163.733 275.29 163.237 275.496 162.813C275.704 162.389 275.993 162.06 276.363 161.826C276.734 161.592 277.166 161.474 277.659 161.474C278.151 161.474 278.582 161.592 278.951 161.826C279.323 162.06 279.612 162.389 279.818 162.813C280.026 163.237 280.13 163.733 280.13 164.301C280.13 164.865 280.026 165.357 279.818 165.778C279.612 166.2 279.323 166.528 278.951 166.762C278.582 166.996 278.151 167.114 277.659 167.114ZM277.659 166.361C278.033 166.361 278.341 166.265 278.582 166.073C278.824 165.881 279.002 165.629 279.118 165.317C279.234 165.004 279.292 164.666 279.292 164.301C279.292 163.937 279.234 163.597 279.118 163.282C279.002 162.967 278.824 162.713 278.582 162.518C278.341 162.324 278.033 162.227 277.659 162.227C277.285 162.227 276.977 162.324 276.735 162.518C276.494 162.713 276.315 162.967 276.199 163.282C276.083 163.597 276.025 163.937 276.025 164.301C276.025 164.666 276.083 165.004 276.199 165.317C276.315 165.629 276.494 165.881 276.735 166.073C276.977 166.265 277.285 166.361 277.659 166.361ZM281.41 167V161.545H282.219V162.398H282.29C282.404 162.107 282.587 161.88 282.841 161.719C283.094 161.556 283.398 161.474 283.753 161.474C284.113 161.474 284.413 161.556 284.652 161.719C284.893 161.88 285.081 162.107 285.216 162.398H285.273C285.413 162.116 285.622 161.892 285.902 161.727C286.181 161.558 286.516 161.474 286.907 161.474C287.394 161.474 287.793 161.627 288.104 161.933C288.414 162.236 288.569 162.708 288.569 163.349V167H287.731V163.349C287.731 162.947 287.621 162.659 287.4 162.487C287.18 162.314 286.921 162.227 286.623 162.227C286.239 162.227 285.942 162.343 285.731 162.575C285.521 162.805 285.415 163.096 285.415 163.449V167H284.563V163.264C284.563 162.954 284.462 162.704 284.261 162.515C284.06 162.323 283.801 162.227 283.483 162.227C283.266 162.227 283.062 162.285 282.873 162.401C282.686 162.517 282.534 162.678 282.418 162.884C282.305 163.088 282.248 163.323 282.248 163.591V167H281.41Z" fill="#5C5B5F"/>
<path d="M346.31 158.727V166H345.429V159.651H345.386L343.611 160.83V159.935L345.429 158.727H346.31ZM348.401 166V165.361L350.802 162.733C351.084 162.425 351.316 162.158 351.498 161.93C351.68 161.701 351.815 161.485 351.903 161.284C351.993 161.08 352.038 160.867 352.038 160.645C352.038 160.389 351.976 160.168 351.853 159.981C351.732 159.794 351.567 159.649 351.356 159.548C351.145 159.446 350.908 159.395 350.646 159.395C350.366 159.395 350.122 159.453 349.914 159.569C349.708 159.683 349.548 159.842 349.435 160.048C349.323 160.254 349.268 160.496 349.268 160.773H348.43C348.43 160.347 348.528 159.973 348.724 159.651C348.921 159.329 349.188 159.078 349.527 158.898C349.868 158.718 350.25 158.628 350.674 158.628C351.1 158.628 351.478 158.718 351.807 158.898C352.136 159.078 352.394 159.32 352.581 159.626C352.768 159.931 352.862 160.271 352.862 160.645C352.862 160.912 352.813 161.174 352.716 161.43C352.621 161.683 352.455 161.966 352.219 162.278C351.984 162.589 351.659 162.967 351.242 163.415L349.609 165.162V165.219H352.989V166H348.401ZM356.786 166.099C356.298 166.099 355.867 166.013 355.493 165.84C355.121 165.665 354.831 165.425 354.623 165.119C354.415 164.812 354.312 164.461 354.314 164.068C354.312 163.76 354.372 163.476 354.495 163.216C354.618 162.953 354.786 162.734 354.999 162.559C355.215 162.381 355.455 162.269 355.72 162.222V162.179C355.372 162.089 355.095 161.894 354.889 161.593C354.683 161.29 354.581 160.946 354.584 160.56C354.581 160.19 354.675 159.86 354.864 159.569C355.054 159.278 355.314 159.048 355.646 158.88C355.979 158.712 356.359 158.628 356.786 158.628C357.207 158.628 357.583 158.712 357.915 158.88C358.246 159.048 358.507 159.278 358.696 159.569C358.888 159.86 358.985 160.19 358.987 160.56C358.985 160.946 358.879 161.29 358.671 161.593C358.465 161.894 358.192 162.089 357.851 162.179V162.222C358.114 162.269 358.35 162.381 358.561 162.559C358.772 162.734 358.94 162.953 359.065 163.216C359.191 163.476 359.255 163.76 359.257 164.068C359.255 164.461 359.148 164.812 358.938 165.119C358.729 165.425 358.439 165.665 358.067 165.84C357.698 166.013 357.271 166.099 356.786 166.099ZM356.786 165.318C357.115 165.318 357.399 165.265 357.638 165.158C357.877 165.052 358.062 164.902 358.192 164.707C358.322 164.513 358.388 164.286 358.391 164.026C358.388 163.751 358.317 163.508 358.178 163.298C358.038 163.087 357.847 162.921 357.606 162.8C357.367 162.68 357.093 162.619 356.786 162.619C356.475 162.619 356.198 162.68 355.955 162.8C355.713 162.921 355.522 163.087 355.383 163.298C355.246 163.508 355.178 163.751 355.18 164.026C355.178 164.286 355.241 164.513 355.369 164.707C355.499 164.902 355.685 165.052 355.926 165.158C356.168 165.265 356.454 165.318 356.786 165.318ZM356.786 161.866C357.046 161.866 357.277 161.814 357.478 161.71C357.682 161.606 357.841 161.46 357.957 161.273C358.073 161.086 358.133 160.867 358.135 160.616C358.133 160.37 358.075 160.156 357.961 159.974C357.847 159.789 357.69 159.647 357.489 159.548C357.287 159.446 357.053 159.395 356.786 159.395C356.513 159.395 356.275 159.446 356.072 159.548C355.868 159.647 355.711 159.789 355.599 159.974C355.488 160.156 355.434 160.37 355.436 160.616C355.434 160.867 355.489 161.086 355.603 161.273C355.719 161.46 355.879 161.606 356.082 161.71C356.286 161.814 356.52 161.866 356.786 161.866ZM369.411 161H368.53C368.478 160.747 368.387 160.524 368.257 160.332C368.129 160.141 367.972 159.98 367.788 159.849C367.606 159.717 367.403 159.617 367.181 159.551C366.958 159.485 366.726 159.452 366.485 159.452C366.044 159.452 365.645 159.563 365.288 159.786C364.933 160.008 364.65 160.336 364.439 160.769C364.231 161.202 364.127 161.734 364.127 162.364C364.127 162.993 364.231 163.525 364.439 163.958C364.65 164.391 364.933 164.719 365.288 164.942C365.645 165.164 366.044 165.276 366.485 165.276C366.726 165.276 366.958 165.242 367.181 165.176C367.403 165.11 367.606 165.012 367.788 164.881C367.972 164.749 368.129 164.587 368.257 164.395C368.387 164.201 368.478 163.978 368.53 163.727H369.411C369.344 164.099 369.224 164.432 369.048 164.725C368.873 165.019 368.655 165.268 368.395 165.474C368.135 165.678 367.842 165.833 367.518 165.94C367.196 166.046 366.852 166.099 366.485 166.099C365.864 166.099 365.313 165.948 364.83 165.645C364.347 165.342 363.967 164.911 363.69 164.352C363.413 163.794 363.274 163.131 363.274 162.364C363.274 161.597 363.413 160.934 363.69 160.375C363.967 159.816 364.347 159.385 364.83 159.082C365.313 158.779 365.864 158.628 366.485 158.628C366.852 158.628 367.196 158.681 367.518 158.788C367.842 158.894 368.135 159.05 368.395 159.256C368.655 159.46 368.873 159.709 369.048 160.002C369.224 160.293 369.344 160.626 369.411 161ZM370.72 166V160.545H371.558V166H370.72ZM371.146 159.636C370.983 159.636 370.842 159.581 370.724 159.469C370.608 159.358 370.55 159.224 370.55 159.068C370.55 158.912 370.608 158.778 370.724 158.667C370.842 158.556 370.983 158.5 371.146 158.5C371.31 158.5 371.449 158.556 371.565 158.667C371.684 158.778 371.743 158.912 371.743 159.068C371.743 159.224 371.684 159.358 371.565 159.469C371.449 159.581 371.31 159.636 371.146 159.636ZM375.465 160.545V161.256H372.639V160.545H375.465ZM373.463 159.239H374.301V164.438C374.301 164.674 374.335 164.852 374.404 164.97C374.475 165.086 374.565 165.164 374.673 165.205C374.785 165.242 374.902 165.261 375.025 165.261C375.117 165.261 375.193 165.257 375.252 165.247C375.311 165.235 375.359 165.226 375.394 165.219L375.565 165.972C375.508 165.993 375.429 166.014 375.327 166.036C375.225 166.059 375.096 166.071 374.94 166.071C374.703 166.071 374.471 166.02 374.244 165.918C374.019 165.817 373.832 165.661 373.683 165.453C373.536 165.245 373.463 164.982 373.463 164.665V159.239ZM377.266 168.045C377.124 168.045 376.997 168.034 376.886 168.01C376.775 167.989 376.698 167.967 376.655 167.946L376.868 167.207C377.072 167.259 377.252 167.278 377.408 167.264C377.564 167.25 377.703 167.18 377.823 167.055C377.946 166.932 378.059 166.732 378.161 166.455L378.317 166.028L376.3 160.545H377.209L378.715 164.892H378.771L380.277 160.545H381.186L378.871 166.795C378.767 167.077 378.638 167.31 378.484 167.495C378.33 167.682 378.151 167.821 377.948 167.911C377.746 168 377.519 168.045 377.266 168.045ZM385.219 166V158.727H387.676C388.244 158.727 388.711 158.824 389.075 159.018C389.44 159.21 389.71 159.474 389.885 159.81C390.06 160.147 390.148 160.529 390.148 160.957C390.148 161.386 390.06 161.766 389.885 162.097C389.71 162.429 389.441 162.689 389.079 162.879C388.716 163.066 388.254 163.159 387.69 163.159H385.702V162.364H387.662C388.05 162.364 388.363 162.307 388.599 162.193C388.838 162.08 389.011 161.919 389.118 161.71C389.227 161.5 389.281 161.249 389.281 160.957C389.281 160.666 389.227 160.412 389.118 160.194C389.009 159.976 388.835 159.808 388.596 159.69C388.357 159.569 388.041 159.509 387.648 159.509H386.099V166H385.219ZM388.642 162.733L390.432 166H389.409L387.648 162.733H388.642ZM393.502 166.114C393.048 166.114 392.647 165.999 392.299 165.769C391.951 165.537 391.678 165.21 391.482 164.789C391.285 164.365 391.187 163.865 391.187 163.287C391.187 162.714 391.285 162.217 391.482 161.795C391.678 161.374 391.952 161.049 392.302 160.819C392.653 160.589 393.057 160.474 393.517 160.474C393.872 160.474 394.152 160.534 394.358 160.652C394.567 160.768 394.725 160.901 394.834 161.05C394.945 161.196 395.032 161.317 395.093 161.412H395.164V158.727H396.002V166H395.193V165.162H395.093C395.032 165.261 394.944 165.387 394.831 165.538C394.717 165.687 394.555 165.821 394.344 165.94C394.133 166.056 393.853 166.114 393.502 166.114ZM393.616 165.361C393.952 165.361 394.236 165.273 394.468 165.098C394.7 164.92 394.877 164.675 394.998 164.363C395.118 164.048 395.179 163.685 395.179 163.273C395.179 162.866 395.119 162.509 395.001 162.204C394.883 161.896 394.708 161.657 394.475 161.487C394.243 161.314 393.957 161.227 393.616 161.227C393.261 161.227 392.965 161.318 392.728 161.501C392.494 161.681 392.318 161.926 392.199 162.236C392.083 162.544 392.025 162.889 392.025 163.273C392.025 163.661 392.084 164.014 392.203 164.331C392.324 164.646 392.501 164.897 392.735 165.084C392.972 165.268 393.266 165.361 393.616 165.361ZM398.904 165.006L398.847 165.389C398.807 165.659 398.745 165.948 398.662 166.256C398.582 166.563 398.498 166.853 398.41 167.126C398.323 167.398 398.25 167.615 398.194 167.776H397.554C397.585 167.624 397.625 167.424 397.675 167.175C397.725 166.927 397.775 166.649 397.824 166.341C397.876 166.036 397.919 165.723 397.952 165.403L397.995 165.006H398.904ZM403.383 166V158.727H404.263V165.219H407.644V166H403.383ZM411.11 166.114C410.617 166.114 410.185 165.996 409.814 165.762C409.444 165.528 409.156 165.2 408.947 164.778C408.741 164.357 408.638 163.865 408.638 163.301C408.638 162.733 408.741 162.237 408.947 161.813C409.156 161.389 409.444 161.06 409.814 160.826C410.185 160.592 410.617 160.474 411.11 160.474C411.602 160.474 412.033 160.592 412.403 160.826C412.774 161.06 413.063 161.389 413.269 161.813C413.477 162.237 413.581 162.733 413.581 163.301C413.581 163.865 413.477 164.357 413.269 164.778C413.063 165.2 412.774 165.528 412.403 165.762C412.033 165.996 411.602 166.114 411.11 166.114ZM411.11 165.361C411.484 165.361 411.792 165.265 412.033 165.073C412.275 164.881 412.453 164.629 412.569 164.317C412.685 164.004 412.743 163.666 412.743 163.301C412.743 162.937 412.685 162.597 412.569 162.282C412.453 161.967 412.275 161.713 412.033 161.518C411.792 161.324 411.484 161.227 411.11 161.227C410.736 161.227 410.428 161.324 410.187 161.518C409.945 161.713 409.766 161.967 409.65 162.282C409.534 162.597 409.476 162.937 409.476 163.301C409.476 163.666 409.534 164.004 409.65 164.317C409.766 164.629 409.945 164.881 410.187 165.073C410.428 165.265 410.736 165.361 411.11 165.361ZM415.699 162.719V166H414.861V160.545H415.67V161.398H415.741C415.869 161.121 416.063 160.898 416.324 160.73C416.584 160.56 416.92 160.474 417.332 160.474C417.702 160.474 418.025 160.55 418.302 160.702C418.579 160.851 418.794 161.078 418.948 161.384C419.102 161.687 419.179 162.07 419.179 162.534V166H418.341V162.591C418.341 162.162 418.23 161.829 418.007 161.589C417.785 161.348 417.479 161.227 417.091 161.227C416.823 161.227 416.584 161.285 416.374 161.401C416.165 161.517 416.001 161.687 415.88 161.909C415.759 162.132 415.699 162.402 415.699 162.719ZM422.77 166.114C422.316 166.114 421.914 165.999 421.566 165.769C421.218 165.537 420.946 165.21 420.749 164.789C420.553 164.365 420.455 163.865 420.455 163.287C420.455 162.714 420.553 162.217 420.749 161.795C420.946 161.374 421.219 161.049 421.57 160.819C421.92 160.589 422.325 160.474 422.784 160.474C423.139 160.474 423.42 160.534 423.626 160.652C423.834 160.768 423.993 160.901 424.102 161.05C424.213 161.196 424.299 161.317 424.361 161.412H424.432V158.727H425.27V166H424.46V165.162H424.361C424.299 165.261 424.212 165.387 424.098 165.538C423.985 165.687 423.822 165.821 423.612 165.94C423.401 166.056 423.12 166.114 422.77 166.114ZM422.884 165.361C423.22 165.361 423.504 165.273 423.736 165.098C423.968 164.92 424.144 164.675 424.265 164.363C424.386 164.048 424.446 163.685 424.446 163.273C424.446 162.866 424.387 162.509 424.269 162.204C424.15 161.896 423.975 161.657 423.743 161.487C423.511 161.314 423.225 161.227 422.884 161.227C422.529 161.227 422.233 161.318 421.996 161.501C421.762 161.681 421.585 161.926 421.467 162.236C421.351 162.544 421.293 162.889 421.293 163.273C421.293 163.661 421.352 164.014 421.47 164.331C421.591 164.646 421.769 164.897 422.003 165.084C422.24 165.268 422.533 165.361 422.884 165.361ZM429.137 166.114C428.645 166.114 428.213 165.996 427.841 165.762C427.472 165.528 427.183 165.2 426.975 164.778C426.769 164.357 426.666 163.865 426.666 163.301C426.666 162.733 426.769 162.237 426.975 161.813C427.183 161.389 427.472 161.06 427.841 160.826C428.213 160.592 428.645 160.474 429.137 160.474C429.63 160.474 430.061 160.592 430.43 160.826C430.802 161.06 431.09 161.389 431.296 161.813C431.505 162.237 431.609 162.733 431.609 163.301C431.609 163.865 431.505 164.357 431.296 164.778C431.09 165.2 430.802 165.528 430.43 165.762C430.061 165.996 429.63 166.114 429.137 166.114ZM429.137 165.361C429.511 165.361 429.819 165.265 430.061 165.073C430.302 164.881 430.481 164.629 430.597 164.317C430.713 164.004 430.771 163.666 430.771 163.301C430.771 162.937 430.713 162.597 430.597 162.282C430.481 161.967 430.302 161.713 430.061 161.518C429.819 161.324 429.511 161.227 429.137 161.227C428.763 161.227 428.455 161.324 428.214 161.518C427.972 161.713 427.794 161.967 427.678 162.282C427.562 162.597 427.504 162.937 427.504 163.301C427.504 163.666 427.562 164.004 427.678 164.317C427.794 164.629 427.972 164.881 428.214 165.073C428.455 165.265 428.763 165.361 429.137 165.361ZM433.726 162.719V166H432.888V160.545H433.698V161.398H433.769C433.897 161.121 434.091 160.898 434.351 160.73C434.612 160.56 434.948 160.474 435.36 160.474C435.729 160.474 436.052 160.55 436.329 160.702C436.606 160.851 436.822 161.078 436.975 161.384C437.129 161.687 437.206 162.07 437.206 162.534V166H436.368V162.591C436.368 162.162 436.257 161.829 436.034 161.589C435.812 161.348 435.507 161.227 435.118 161.227C434.851 161.227 434.612 161.285 434.401 161.401C434.193 161.517 434.028 161.687 433.907 161.909C433.787 162.132 433.726 162.402 433.726 162.719ZM441.664 166V158.727H446.053V159.509H442.545V161.966H445.826V162.747H442.545V165.219H446.11V166H441.664ZM453.493 161H452.612C452.56 160.747 452.469 160.524 452.339 160.332C452.211 160.141 452.055 159.98 451.87 159.849C451.688 159.717 451.485 159.617 451.263 159.551C451.04 159.485 450.808 159.452 450.567 159.452C450.126 159.452 449.727 159.563 449.37 159.786C449.015 160.008 448.732 160.336 448.521 160.769C448.313 161.202 448.209 161.734 448.209 162.364C448.209 162.993 448.313 163.525 448.521 163.958C448.732 164.391 449.015 164.719 449.37 164.942C449.727 165.164 450.126 165.276 450.567 165.276C450.808 165.276 451.04 165.242 451.263 165.176C451.485 165.11 451.688 165.012 451.87 164.881C452.055 164.749 452.211 164.587 452.339 164.395C452.469 164.201 452.56 163.978 452.612 163.727H453.493C453.426 164.099 453.306 164.432 453.131 164.725C452.955 165.019 452.738 165.268 452.477 165.474C452.217 165.678 451.924 165.833 451.6 165.94C451.278 166.046 450.934 166.099 450.567 166.099C449.946 166.099 449.395 165.948 448.912 165.645C448.429 165.342 448.049 164.911 447.772 164.352C447.495 163.794 447.356 163.131 447.356 162.364C447.356 161.597 447.495 160.934 447.772 160.375C448.049 159.816 448.429 159.385 448.912 159.082C449.395 158.779 449.946 158.628 450.567 158.628C450.934 158.628 451.278 158.681 451.6 158.788C451.924 158.894 452.217 159.05 452.477 159.256C452.738 159.46 452.955 159.709 453.131 160.002C453.306 160.293 453.426 160.626 453.493 161ZM457.345 158.727V166H456.464V159.651H456.422L454.646 160.83V159.935L456.464 158.727H457.345ZM459.863 158.727L462.022 164.849H462.107L464.266 158.727H465.189L462.519 166H461.61L458.939 158.727H459.863ZM469.007 166V165.361L471.407 162.733C471.689 162.425 471.921 162.158 472.103 161.93C472.286 161.701 472.421 161.485 472.508 161.284C472.598 161.08 472.643 160.867 472.643 160.645C472.643 160.389 472.582 160.168 472.458 159.981C472.338 159.794 472.172 159.649 471.961 159.548C471.751 159.446 471.514 159.395 471.251 159.395C470.972 159.395 470.728 159.453 470.52 159.569C470.314 159.683 470.154 159.842 470.04 160.048C469.929 160.254 469.873 160.496 469.873 160.773H469.035C469.035 160.347 469.133 159.973 469.33 159.651C469.526 159.329 469.794 159.078 470.132 158.898C470.473 158.718 470.856 158.628 471.279 158.628C471.706 158.628 472.083 158.718 472.412 158.898C472.741 159.078 472.999 159.32 473.186 159.626C473.373 159.931 473.467 160.271 473.467 160.645C473.467 160.912 473.418 161.174 473.321 161.43C473.227 161.683 473.061 161.966 472.824 162.278C472.59 162.589 472.264 162.967 471.848 163.415L470.214 165.162V165.219H473.595V166H469.007ZM480.956 158.727V166H480.104L476.141 160.29H476.07V166H475.189V158.727H476.042L480.019 164.452H480.09V158.727H480.956ZM483.145 158.727L485.02 161.753H485.077L486.952 158.727H487.988L485.702 162.364L487.988 166H486.952L485.077 163.031H485.02L483.145 166H482.108L484.452 162.364L482.108 158.727H483.145ZM490.271 165.006L490.214 165.389C490.174 165.659 490.112 165.948 490.029 166.256C489.949 166.563 489.865 166.853 489.777 167.126C489.69 167.398 489.618 167.615 489.561 167.776H488.922C488.952 167.624 488.993 167.424 489.042 167.175C489.092 166.927 489.142 166.649 489.191 166.341C489.243 166.036 489.286 165.723 489.319 165.403L489.362 165.006H490.271ZM499.523 158.727H500.403V163.543C500.403 164.04 500.286 164.484 500.052 164.874C499.82 165.263 499.492 165.569 499.068 165.794C498.644 166.017 498.147 166.128 497.577 166.128C497.006 166.128 496.509 166.017 496.085 165.794C495.661 165.569 495.332 165.263 495.098 164.874C494.866 164.484 494.75 164.04 494.75 163.543V158.727H495.631V163.472C495.631 163.827 495.709 164.143 495.865 164.42C496.021 164.694 496.244 164.911 496.532 165.07C496.824 165.226 497.172 165.304 497.577 165.304C497.981 165.304 498.329 165.226 498.621 165.07C498.912 164.911 499.134 164.694 499.288 164.42C499.444 164.143 499.523 163.827 499.523 163.472V158.727ZM502.162 166V158.727H503.043V162.335H503.128L506.395 158.727H507.545L504.491 162.009L507.545 166H506.48L503.952 162.619L503.043 163.642V166H502.162Z" fill="#5C5B5F"/>
</g>
<defs>
<clipPath id="clip0_2011_38">
<rect width="595" height="239" fill="white"/>
</clipPath>
</defs>
</svg>
